<svg width="1240" height="352" viewBox="0 0 1240 352" fill="none" xmlns="http://www.w3.org/2000/svg">
<path d="M11.7627 30L6.60645 13.1982H6.47461C6.49414 13.5986 6.52344 14.2041 6.5625 15.0146C6.61133 15.8154 6.65527 16.6699 6.69434 17.5781C6.7334 18.4863 6.75293 19.3066 6.75293 20.0391V30H2.69531V8.58398H8.87695L13.9453 24.9609H14.0332L19.4092 8.58398H25.5908V30H21.3574V19.8633C21.3574 19.1895 21.3672 18.4131 21.3867 17.5342C21.416 16.6553 21.4502 15.8203 21.4893 15.0293C21.5283 14.2285 21.5576 13.6279 21.5771 13.2275H21.4453L15.9229 30H11.7627ZM45.5273 21.7822C45.5273 23.1494 45.3418 24.3604 44.9707 25.415C44.6094 26.4697 44.0771 27.3633 43.374 28.0957C42.6807 28.8184 41.8408 29.3652 40.8545 29.7363C39.8779 30.1074 38.7744 30.293 37.5439 30.293C36.3916 30.293 35.332 30.1074 34.3652 29.7363C33.4082 29.3652 32.5732 28.8184 31.8604 28.0957C31.1572 27.3633 30.6104 26.4697 30.2197 25.415C29.8389 24.3604 29.6484 23.1494 29.6484 21.7822C29.6484 19.9658 29.9707 18.4277 30.6152 17.168C31.2598 15.9082 32.1777 14.9512 33.3691 14.2969C34.5605 13.6426 35.9814 13.3154 37.6318 13.3154C39.165 13.3154 40.5225 13.6426 41.7041 14.2969C42.8955 14.9512 43.8281 15.9082 44.502 17.168C45.1855 18.4277 45.5273 19.9658 45.5273 21.7822ZM34.2041 21.7822C34.2041 22.8564 34.3213 23.7598 34.5557 24.4922C34.79 25.2246 35.1562 25.7764 35.6543 26.1475C36.1523 26.5186 36.8018 26.7041 37.6025 26.7041C38.3936 26.7041 39.0332 26.5186 39.5215 26.1475C40.0195 25.7764 40.3809 25.2246 40.6055 24.4922C40.8398 23.7598 40.957 22.8564 40.957 21.7822C40.957 20.6982 40.8398 19.7998 40.6055 19.0869C40.3809 18.3643 40.0195 17.8223 39.5215 17.4609C39.0234 17.0996 38.374 16.9189 37.5732 16.9189C36.3916 16.9189 35.5322 17.3242 34.9951 18.1348C34.4678 18.9453 34.2041 20.1611 34.2041 21.7822ZM53.54 13.623V20.0977C53.54 20.4297 53.5254 20.8496 53.4961 21.3574C53.4766 21.8555 53.4473 22.3633 53.4082 22.8809C53.3691 23.3984 53.3301 23.8623 53.291 24.2725C53.252 24.6826 53.2227 24.9609 53.2031 25.1074L60.7617 13.623H66.1377V30H61.8164V23.4668C61.8164 22.9297 61.8359 22.3389 61.875 21.6943C61.9141 21.04 61.958 20.4248 62.0068 19.8486C62.0557 19.2725 62.0898 18.8379 62.1094 18.5449L54.5801 30H49.2188V13.623H53.54ZM83.1006 13.623V19.9219H89.3408V13.623H93.8086V30H89.3408V23.2471H83.1006V30H78.6328V13.623H83.1006ZM105.205 13.2861C107.402 13.2861 109.087 13.7646 110.259 14.7217C111.431 15.6787 112.017 17.1338 112.017 19.0869V30H108.896L108.032 27.7734H107.915C107.446 28.3594 106.968 28.8379 106.479 29.209C105.991 29.5801 105.43 29.8535 104.795 30.0293C104.16 30.2051 103.389 30.293 102.48 30.293C101.514 30.293 100.645 30.1074 99.873 29.7363C99.1113 29.3652 98.5107 28.7988 98.0713 28.0371C97.6318 27.2656 97.4121 26.2891 97.4121 25.1074C97.4121 23.3691 98.0225 22.0898 99.2432 21.2695C100.464 20.4395 102.295 19.9805 104.736 19.8926L107.578 19.8047V19.0869C107.578 18.2275 107.354 17.5977 106.904 17.1973C106.455 16.7969 105.83 16.5967 105.029 16.5967C104.238 16.5967 103.462 16.709 102.7 16.9336C101.938 17.1582 101.177 17.4414 100.415 17.7832L98.9355 14.7656C99.8047 14.3066 100.776 13.9453 101.851 13.6816C102.935 13.418 104.053 13.2861 105.205 13.2861ZM107.578 22.4121L105.85 22.4707C104.404 22.5098 103.398 22.7686 102.832 23.2471C102.275 23.7256 101.997 24.3555 101.997 25.1367C101.997 25.8203 102.197 26.3086 102.598 26.6016C102.998 26.8848 103.521 27.0264 104.165 27.0264C105.122 27.0264 105.928 26.7432 106.582 26.1768C107.246 25.6104 107.578 24.8047 107.578 23.7598V22.4121ZM131.147 17.915C131.147 18.7939 130.869 19.5459 130.312 20.1709C129.766 20.7861 128.955 21.1816 127.881 21.3574V21.4746C129.014 21.6113 129.927 22.0068 130.62 22.6611C131.313 23.3057 131.66 24.1211 131.66 25.1074C131.66 26.0449 131.416 26.8848 130.928 27.627C130.439 28.3594 129.663 28.9404 128.599 29.3701C127.534 29.79 126.143 30 124.424 30H116.631V13.623H124.424C125.703 13.623 126.851 13.7598 127.866 14.0332C128.882 14.2969 129.683 14.7412 130.269 15.3662C130.854 15.9912 131.147 16.8408 131.147 17.915ZM127.031 24.873C127.031 24.2285 126.777 23.7646 126.27 23.4814C125.771 23.1885 125.029 23.042 124.043 23.042H121.099V26.9092H124.131C124.971 26.9092 125.664 26.7529 126.211 26.4404C126.758 26.1279 127.031 25.6055 127.031 24.873ZM126.621 18.2666C126.621 17.7588 126.421 17.3828 126.021 17.1387C125.62 16.8945 125.029 16.7725 124.248 16.7725H121.099V20.0098H123.735C124.683 20.0098 125.4 19.873 125.889 19.5996C126.377 19.3262 126.621 18.8818 126.621 18.2666ZM135.498 30V13.623H139.966V19.9512H142.119C143.789 19.9512 145.166 20.127 146.25 20.4785C147.344 20.8301 148.154 21.3672 148.682 22.0898C149.209 22.8027 149.473 23.7012 149.473 24.7852C149.473 25.8398 149.229 26.7578 148.74 27.5391C148.252 28.3203 147.48 28.9258 146.426 29.3555C145.371 29.7852 143.989 30 142.28 30H135.498ZM139.966 26.9092H142.031C142.9 26.9092 143.613 26.7529 144.17 26.4404C144.727 26.1182 145.005 25.5859 145.005 24.8438C145.005 24.209 144.751 23.75 144.243 23.4668C143.735 23.1836 142.979 23.042 141.973 23.042H139.966V26.9092ZM151.846 30V13.623H156.313V30H151.846ZM171.753 13.623H176.675L170.186 21.4746L177.246 30H172.178L165.483 21.6943V30H161.016V13.623H165.483V21.5771L171.753 13.623ZM183.911 13.623V20.0977C183.911 20.4297 183.896 20.8496 183.867 21.3574C183.848 21.8555 183.818 22.3633 183.779 22.8809C183.74 23.3984 183.701 23.8623 183.662 24.2725C183.623 24.6826 183.594 24.9609 183.574 25.1074L191.133 13.623H196.509V30H192.188V23.4668C192.188 22.9297 192.207 22.3389 192.246 21.6943C192.285 21.04 192.329 20.4248 192.378 19.8486C192.427 19.2725 192.461 18.8379 192.48 18.5449L184.951 30H179.59V13.623H183.911Z" fill="#212121"/>
<path d="M807.057 12.9824C806.269 12.9824 805.559 13.1191 804.928 13.3926C804.303 13.6595 803.769 14.0501 803.326 14.5645C802.89 15.0723 802.555 15.6875 802.32 16.4102C802.086 17.1328 801.969 17.9466 801.969 18.8516C801.969 20.0495 802.154 21.0911 802.525 21.9766C802.903 22.8555 803.463 23.5358 804.205 24.0176C804.954 24.4993 805.888 24.7402 807.008 24.7402C807.646 24.7402 808.245 24.6882 808.805 24.584C809.371 24.4733 809.921 24.3366 810.455 24.1738V25.6191C809.934 25.8145 809.387 25.9577 808.814 26.0488C808.242 26.1465 807.561 26.1953 806.773 26.1953C805.322 26.1953 804.107 25.8958 803.131 25.2969C802.161 24.6914 801.432 23.8385 800.943 22.7383C800.462 21.638 800.221 20.3392 800.221 18.8418C800.221 17.7611 800.37 16.7747 800.67 15.8828C800.976 14.9844 801.419 14.2096 801.998 13.5586C802.584 12.9076 803.3 12.4062 804.146 12.0547C804.999 11.6966 805.976 11.5176 807.076 11.5176C807.799 11.5176 808.495 11.5892 809.166 11.7324C809.837 11.8757 810.442 12.0807 810.982 12.3477L810.318 13.7539C809.863 13.5456 809.361 13.3665 808.814 13.2168C808.274 13.0605 807.688 12.9824 807.057 12.9824ZM822.535 20.6289C822.535 21.5078 822.421 22.2923 822.193 22.9824C821.965 23.6725 821.637 24.2552 821.207 24.7305C820.777 25.2057 820.257 25.5703 819.645 25.8242C819.039 26.0716 818.352 26.1953 817.584 26.1953C816.868 26.1953 816.21 26.0716 815.611 25.8242C815.019 25.5703 814.505 25.2057 814.068 24.7305C813.639 24.2552 813.303 23.6725 813.062 22.9824C812.828 22.2923 812.711 21.5078 812.711 20.6289C812.711 19.457 812.91 18.4609 813.307 17.6406C813.704 16.8138 814.27 16.1855 815.006 15.7559C815.748 15.3197 816.63 15.1016 817.652 15.1016C818.629 15.1016 819.482 15.3197 820.211 15.7559C820.947 16.1921 821.516 16.8236 821.92 17.6504C822.33 18.4707 822.535 19.4635 822.535 20.6289ZM814.391 20.6289C814.391 21.4883 814.505 22.2337 814.732 22.8652C814.96 23.4967 815.312 23.985 815.787 24.3301C816.262 24.6751 816.874 24.8477 817.623 24.8477C818.365 24.8477 818.974 24.6751 819.449 24.3301C819.931 23.985 820.286 23.4967 820.514 22.8652C820.742 22.2337 820.855 21.4883 820.855 20.6289C820.855 19.776 820.742 19.0404 820.514 18.4219C820.286 17.7969 819.934 17.3151 819.459 16.9766C818.984 16.638 818.368 16.4688 817.613 16.4688C816.5 16.4688 815.683 16.8366 815.162 17.5723C814.648 18.3079 814.391 19.3268 814.391 20.6289ZM830.367 15.1016C831.702 15.1016 832.766 15.5605 833.561 16.4785C834.355 17.3965 834.752 18.7767 834.752 20.6191C834.752 21.8366 834.57 22.8587 834.205 23.6855C833.84 24.5124 833.326 25.1374 832.662 25.5605C832.005 25.9837 831.227 26.1953 830.328 26.1953C829.762 26.1953 829.264 26.1204 828.834 25.9707C828.404 25.821 828.036 25.6191 827.73 25.3652C827.424 25.1113 827.171 24.8346 826.969 24.5352H826.852C826.871 24.7891 826.894 25.0951 826.92 25.4531C826.952 25.8112 826.969 26.1237 826.969 26.3906V30.7852H825.338V15.2969H826.676L826.891 16.8789H826.969C827.177 16.5534 827.431 16.2572 827.73 15.9902C828.03 15.7168 828.395 15.502 828.824 15.3457C829.26 15.1829 829.775 15.1016 830.367 15.1016ZM830.084 16.4688C829.342 16.4688 828.743 16.612 828.287 16.8984C827.838 17.1849 827.509 17.6146 827.301 18.1875C827.092 18.7539 826.982 19.4668 826.969 20.3262V20.6387C826.969 21.5436 827.066 22.3086 827.262 22.9336C827.464 23.5586 827.792 24.0339 828.248 24.3594C828.71 24.6849 829.329 24.8477 830.104 24.8477C830.768 24.8477 831.321 24.6686 831.764 24.3105C832.206 23.9525 832.535 23.4544 832.75 22.8164C832.971 22.1719 833.082 21.4329 833.082 20.5996C833.082 19.3366 832.835 18.334 832.34 17.5918C831.852 16.8431 831.1 16.4688 830.084 16.4688ZM844.879 16.6738H841.354V26H839.752V16.6738H836.275V15.2969H844.879V16.6738ZM848.541 15.2969V22.0254C848.541 22.1556 848.538 22.3249 848.531 22.5332C848.525 22.735 848.515 22.9531 848.502 23.1875C848.489 23.4154 848.476 23.6367 848.463 23.8516C848.456 24.0599 848.447 24.2324 848.434 24.3691L854.273 15.2969H856.266V26H854.752V19.4375C854.752 19.2292 854.755 18.9622 854.762 18.6367C854.768 18.3112 854.778 17.9922 854.791 17.6797C854.804 17.3607 854.814 17.1133 854.82 16.9375L849 26H846.998V15.2969H848.541ZM864.742 15.1016C866.077 15.1016 867.141 15.5605 867.936 16.4785C868.73 17.3965 869.127 18.7767 869.127 20.6191C869.127 21.8366 868.945 22.8587 868.58 23.6855C868.215 24.5124 867.701 25.1374 867.037 25.5605C866.38 25.9837 865.602 26.1953 864.703 26.1953C864.137 26.1953 863.639 26.1204 863.209 25.9707C862.779 25.821 862.411 25.6191 862.105 25.3652C861.799 25.1113 861.546 24.8346 861.344 24.5352H861.227C861.246 24.7891 861.269 25.0951 861.295 25.4531C861.327 25.8112 861.344 26.1237 861.344 26.3906V30.7852H859.713V15.2969H861.051L861.266 16.8789H861.344C861.552 16.5534 861.806 16.2572 862.105 15.9902C862.405 15.7168 862.77 15.502 863.199 15.3457C863.635 15.1829 864.15 15.1016 864.742 15.1016ZM864.459 16.4688C863.717 16.4688 863.118 16.612 862.662 16.8984C862.213 17.1849 861.884 17.6146 861.676 18.1875C861.467 18.7539 861.357 19.4668 861.344 20.3262V20.6387C861.344 21.5436 861.441 22.3086 861.637 22.9336C861.839 23.5586 862.167 24.0339 862.623 24.3594C863.085 24.6849 863.704 24.8477 864.479 24.8477C865.143 24.8477 865.696 24.6686 866.139 24.3105C866.581 23.9525 866.91 23.4544 867.125 22.8164C867.346 22.1719 867.457 21.4329 867.457 20.5996C867.457 19.3366 867.21 18.334 866.715 17.5918C866.227 16.8431 865.475 16.4688 864.459 16.4688ZM881.188 20.6289C881.188 21.5078 881.074 22.2923 880.846 22.9824C880.618 23.6725 880.289 24.2552 879.859 24.7305C879.43 25.2057 878.909 25.5703 878.297 25.8242C877.691 26.0716 877.005 26.1953 876.236 26.1953C875.52 26.1953 874.863 26.0716 874.264 25.8242C873.671 25.5703 873.157 25.2057 872.721 24.7305C872.291 24.2552 871.956 23.6725 871.715 22.9824C871.48 22.2923 871.363 21.5078 871.363 20.6289C871.363 19.457 871.562 18.4609 871.959 17.6406C872.356 16.8138 872.923 16.1855 873.658 15.7559C874.4 15.3197 875.283 15.1016 876.305 15.1016C877.281 15.1016 878.134 15.3197 878.863 15.7559C879.599 16.1921 880.169 16.8236 880.572 17.6504C880.982 18.4707 881.188 19.4635 881.188 20.6289ZM873.043 20.6289C873.043 21.4883 873.157 22.2337 873.385 22.8652C873.613 23.4967 873.964 23.985 874.439 24.3301C874.915 24.6751 875.527 24.8477 876.275 24.8477C877.018 24.8477 877.626 24.6751 878.102 24.3301C878.583 23.985 878.938 23.4967 879.166 22.8652C879.394 22.2337 879.508 21.4883 879.508 20.6289C879.508 19.776 879.394 19.0404 879.166 18.4219C878.938 17.7969 878.587 17.3151 878.111 16.9766C877.636 16.638 877.021 16.4688 876.266 16.4688C875.152 16.4688 874.335 16.8366 873.814 17.5723C873.3 18.3079 873.043 19.3268 873.043 20.6289ZM892.496 17.9824C892.496 18.653 892.301 19.1771 891.91 19.5547C891.52 19.9258 891.015 20.1764 890.396 20.3066V20.3848C891.067 20.4759 891.643 20.7168 892.125 21.1074C892.613 21.4915 892.857 22.0807 892.857 22.875C892.857 23.487 892.711 24.0273 892.418 24.4961C892.125 24.9648 891.666 25.3327 891.041 25.5996C890.416 25.8665 889.602 26 888.6 26H883.99V15.2969H888.561C889.329 15.2969 890.006 15.3848 890.592 15.5605C891.184 15.7298 891.65 16.0098 891.988 16.4004C892.327 16.791 892.496 17.3184 892.496 17.9824ZM891.168 22.875C891.168 22.2435 890.927 21.7878 890.445 21.5078C889.97 21.2279 889.277 21.0879 888.365 21.0879H885.621V24.6816H888.404C889.303 24.6816 889.986 24.5449 890.455 24.2715C890.93 23.9915 891.168 23.526 891.168 22.875ZM890.846 18.168C890.846 17.6602 890.66 17.2826 890.289 17.0352C889.918 16.7812 889.309 16.6543 888.463 16.6543H885.621V19.7305H888.18C889.059 19.7305 889.723 19.6035 890.172 19.3496C890.621 19.0957 890.846 18.7018 890.846 18.168ZM899.479 15.1211C900.755 15.1211 901.702 15.4076 902.32 15.9805C902.939 16.5534 903.248 17.4681 903.248 18.7246V26H902.066L901.754 24.418H901.676C901.376 24.8086 901.064 25.1374 900.738 25.4043C900.413 25.6647 900.035 25.8633 899.605 26C899.182 26.1302 898.661 26.1953 898.043 26.1953C897.392 26.1953 896.812 26.0814 896.305 25.8535C895.803 25.6257 895.406 25.2806 895.113 24.8184C894.827 24.3561 894.684 23.7702 894.684 23.0605C894.684 21.9928 895.107 21.1725 895.953 20.5996C896.799 20.0267 898.089 19.7142 899.82 19.6621L901.666 19.584V18.9297C901.666 18.0052 901.467 17.3574 901.07 16.9863C900.673 16.6152 900.113 16.4297 899.391 16.4297C898.831 16.4297 898.297 16.5111 897.789 16.6738C897.281 16.8366 896.799 17.0286 896.344 17.25L895.846 16.0195C896.327 15.7721 896.881 15.5605 897.506 15.3848C898.131 15.209 898.788 15.1211 899.479 15.1211ZM901.646 20.7266L900.016 20.7949C898.681 20.847 897.74 21.0651 897.193 21.4492C896.646 21.8333 896.373 22.377 896.373 23.0801C896.373 23.6921 896.559 24.1445 896.93 24.4375C897.301 24.7305 897.792 24.877 898.404 24.877C899.355 24.877 900.133 24.6133 900.738 24.0859C901.344 23.5586 901.646 22.7676 901.646 21.7129V20.7266ZM913.883 16.6738H910.357V26H908.756V16.6738H905.279V15.2969H913.883V16.6738ZM917.633 19.7109H920.914C921.826 19.7109 922.584 19.8249 923.189 20.0527C923.795 20.2806 924.247 20.6191 924.547 21.0684C924.853 21.5176 925.006 22.0742 925.006 22.7383C925.006 23.4023 924.856 23.9785 924.557 24.4668C924.264 24.9551 923.808 25.3327 923.189 25.5996C922.577 25.8665 921.786 26 920.816 26H916.002V15.2969H917.633V19.7109ZM923.375 22.8164C923.375 22.1589 923.141 21.7031 922.672 21.4492C922.21 21.1888 921.562 21.0586 920.729 21.0586H917.633V24.6816H920.738C921.52 24.6816 922.154 24.5384 922.643 24.252C923.131 23.959 923.375 23.4805 923.375 22.8164Z" fill="#212121"/>
<rect x="947.5" y="0.5" width="147" height="35" rx="7.5" stroke="#09A494"/>
<path d="M967.865 13.2969V24H966.234V14.6934H960.531V24H958.9V13.2969H967.865ZM980.531 18.6289C980.531 19.5078 980.417 20.2923 980.189 20.9824C979.962 21.6725 979.633 22.2552 979.203 22.7305C978.773 23.2057 978.253 23.5703 977.641 23.8242C977.035 24.0716 976.348 24.1953 975.58 24.1953C974.864 24.1953 974.206 24.0716 973.607 23.8242C973.015 23.5703 972.501 23.2057 972.064 22.7305C971.635 22.2552 971.299 21.6725 971.059 20.9824C970.824 20.2923 970.707 19.5078 970.707 18.6289C970.707 17.457 970.906 16.4609 971.303 15.6406C971.7 14.8138 972.266 14.1855 973.002 13.7559C973.744 13.3197 974.626 13.1016 975.648 13.1016C976.625 13.1016 977.478 13.3197 978.207 13.7559C978.943 14.1921 979.512 14.8236 979.916 15.6504C980.326 16.4707 980.531 17.4635 980.531 18.6289ZM972.387 18.6289C972.387 19.4883 972.501 20.2337 972.729 20.8652C972.956 21.4967 973.308 21.985 973.783 22.3301C974.258 22.6751 974.87 22.8477 975.619 22.8477C976.361 22.8477 976.97 22.6751 977.445 22.3301C977.927 21.985 978.282 21.4967 978.51 20.8652C978.738 20.2337 978.852 19.4883 978.852 18.6289C978.852 17.776 978.738 17.0404 978.51 16.4219C978.282 15.7969 977.93 15.3151 977.455 14.9766C976.98 14.638 976.365 14.4688 975.609 14.4688C974.496 14.4688 973.679 14.8366 973.158 15.5723C972.644 16.3079 972.387 17.3268 972.387 18.6289ZM990.16 13.2969V17.7891H996.127V13.2969H997.748V24H996.127V19.166H990.16V24H988.529V13.2969H990.16ZM1005.19 13.1211C1006.47 13.1211 1007.41 13.4076 1008.03 13.9805C1008.65 14.5534 1008.96 15.4681 1008.96 16.7246V24H1007.78L1007.46 22.418H1007.39C1007.09 22.8086 1006.77 23.1374 1006.45 23.4043C1006.12 23.6647 1005.75 23.8633 1005.32 24C1004.89 24.1302 1004.37 24.1953 1003.75 24.1953C1003.1 24.1953 1002.52 24.0814 1002.02 23.8535C1001.51 23.6257 1001.12 23.2806 1000.82 22.8184C1000.54 22.3561 1000.39 21.7702 1000.39 21.0605C1000.39 19.9928 1000.82 19.1725 1001.66 18.5996C1002.51 18.0267 1003.8 17.7142 1005.53 17.6621L1007.38 17.584V16.9297C1007.38 16.0052 1007.18 15.3574 1006.78 14.9863C1006.38 14.6152 1005.82 14.4297 1005.1 14.4297C1004.54 14.4297 1004.01 14.5111 1003.5 14.6738C1002.99 14.8366 1002.51 15.0286 1002.05 15.25L1001.56 14.0195C1002.04 13.7721 1002.59 13.5605 1003.22 13.3848C1003.84 13.209 1004.5 13.1211 1005.19 13.1211ZM1007.36 18.7266L1005.73 18.7949C1004.39 18.847 1003.45 19.0651 1002.9 19.4492C1002.36 19.8333 1002.08 20.377 1002.08 21.0801C1002.08 21.6921 1002.27 22.1445 1002.64 22.4375C1003.01 22.7305 1003.5 22.877 1004.12 22.877C1005.07 22.877 1005.84 22.6133 1006.45 22.0859C1007.05 21.5586 1007.36 20.7676 1007.36 19.7129V18.7266ZM1015.05 13.1016C1015.85 13.1016 1016.55 13.2122 1017.13 13.4336C1017.72 13.6484 1018.17 13.9642 1018.49 14.3809C1018.81 14.7975 1018.97 15.3053 1018.97 15.9043C1018.97 16.5488 1018.79 17.0632 1018.44 17.4473C1018.09 17.8314 1017.6 18.1081 1016.99 18.2773V18.3555C1017.42 18.4727 1017.82 18.6419 1018.17 18.8633C1018.53 19.0781 1018.81 19.3646 1019.02 19.7227C1019.23 20.0742 1019.34 20.5137 1019.34 21.041C1019.34 21.64 1019.18 22.1803 1018.85 22.6621C1018.53 23.1374 1018.03 23.5117 1017.37 23.7852C1016.7 24.0586 1015.86 24.1953 1014.85 24.1953C1014.35 24.1953 1013.87 24.166 1013.42 24.1074C1012.97 24.0553 1012.57 23.9772 1012.2 23.873C1011.84 23.7689 1011.52 23.6452 1011.24 23.502V22.0273C1011.7 22.2487 1012.23 22.444 1012.85 22.6133C1013.46 22.7826 1014.12 22.8672 1014.83 22.8672C1015.38 22.8672 1015.87 22.8053 1016.3 22.6816C1016.74 22.5514 1017.08 22.3464 1017.34 22.0664C1017.6 21.7799 1017.73 21.4056 1017.73 20.9434C1017.73 20.5202 1017.61 20.1719 1017.39 19.8984C1017.16 19.6185 1016.82 19.4134 1016.36 19.2832C1015.91 19.1465 1015.34 19.0781 1014.65 19.0781H1013.22V17.75H1014.4C1015.32 17.75 1016.05 17.6198 1016.6 17.3594C1017.14 17.099 1017.42 16.6595 1017.42 16.041C1017.42 15.5072 1017.2 15.11 1016.78 14.8496C1016.36 14.5827 1015.75 14.4492 1014.96 14.4492C1014.38 14.4492 1013.86 14.5111 1013.41 14.6348C1012.96 14.752 1012.48 14.9212 1011.96 15.1426L1011.38 13.8438C1011.94 13.5964 1012.53 13.4108 1013.14 13.2871C1013.75 13.1634 1014.39 13.1016 1015.05 13.1016ZM1030.47 15.9824C1030.47 16.653 1030.28 17.1771 1029.89 17.5547C1029.5 17.9258 1028.99 18.1764 1028.37 18.3066V18.3848C1029.04 18.4759 1029.62 18.7168 1030.1 19.1074C1030.59 19.4915 1030.83 20.0807 1030.83 20.875C1030.83 21.487 1030.69 22.0273 1030.39 22.4961C1030.1 22.9648 1029.64 23.3327 1029.02 23.5996C1028.39 23.8665 1027.58 24 1026.58 24H1021.97V13.2969H1026.54C1027.31 13.2969 1027.98 13.3848 1028.57 13.5605C1029.16 13.7298 1029.63 14.0098 1029.96 14.4004C1030.3 14.791 1030.47 15.3184 1030.47 15.9824ZM1029.14 20.875C1029.14 20.2435 1028.9 19.7878 1028.42 19.5078C1027.95 19.2279 1027.25 19.0879 1026.34 19.0879H1023.6V22.6816H1026.38C1027.28 22.6816 1027.96 22.5449 1028.43 22.2715C1028.91 21.9915 1029.14 21.526 1029.14 20.875ZM1028.82 16.168C1028.82 15.6602 1028.64 15.2826 1028.27 15.0352C1027.89 14.7812 1027.29 14.6543 1026.44 14.6543H1023.6V17.7305H1026.16C1027.04 17.7305 1027.7 17.6035 1028.15 17.3496C1028.6 17.0957 1028.82 16.7018 1028.82 16.168ZM1037.46 13.1211C1038.73 13.1211 1039.68 13.4076 1040.3 13.9805C1040.92 14.5534 1041.22 15.4681 1041.22 16.7246V24H1040.04L1039.73 22.418H1039.65C1039.35 22.8086 1039.04 23.1374 1038.71 23.4043C1038.39 23.6647 1038.01 23.8633 1037.58 24C1037.16 24.1302 1036.64 24.1953 1036.02 24.1953C1035.37 24.1953 1034.79 24.0814 1034.28 23.8535C1033.78 23.6257 1033.38 23.2806 1033.09 22.8184C1032.8 22.3561 1032.66 21.7702 1032.66 21.0605C1032.66 19.9928 1033.08 19.1725 1033.93 18.5996C1034.78 18.0267 1036.07 17.7142 1037.8 17.6621L1039.64 17.584V16.9297C1039.64 16.0052 1039.44 15.3574 1039.05 14.9863C1038.65 14.6152 1038.09 14.4297 1037.37 14.4297C1036.81 14.4297 1036.27 14.5111 1035.77 14.6738C1035.26 14.8366 1034.78 15.0286 1034.32 15.25L1033.82 14.0195C1034.3 13.7721 1034.86 13.5605 1035.48 13.3848C1036.11 13.209 1036.76 13.1211 1037.46 13.1211ZM1039.62 18.7266L1037.99 18.7949C1036.66 18.847 1035.72 19.0651 1035.17 19.4492C1034.62 19.8333 1034.35 20.377 1034.35 21.0801C1034.35 21.6921 1034.54 22.1445 1034.91 22.4375C1035.28 22.7305 1035.77 22.877 1036.38 22.877C1037.33 22.877 1038.11 22.6133 1038.71 22.0859C1039.32 21.5586 1039.62 20.7676 1039.62 19.7129V18.7266ZM1046.2 13.2969V17.7891H1052.16V13.2969H1053.78V24H1052.16V19.166H1046.2V24H1044.56V13.2969H1046.2ZM1058.76 13.2969V20.0254C1058.76 20.1556 1058.76 20.3249 1058.75 20.5332C1058.75 20.735 1058.74 20.9531 1058.72 21.1875C1058.71 21.4154 1058.7 21.6367 1058.69 21.8516C1058.68 22.0599 1058.67 22.2324 1058.66 22.3691L1064.5 13.2969H1066.49V24H1064.97V17.4375C1064.97 17.2292 1064.98 16.9622 1064.98 16.6367C1064.99 16.3112 1065 15.9922 1065.01 15.6797C1065.03 15.3607 1065.04 15.1133 1065.04 14.9375L1059.22 24H1057.22V13.2969H1058.76ZM1083.7 18.6289C1083.7 19.7943 1083.51 20.7936 1083.13 21.627C1082.76 22.4603 1082.22 23.0983 1081.53 23.541C1080.83 23.9772 1080 24.1953 1079.03 24.1953C1078.12 24.1953 1077.33 24 1076.65 23.6094C1075.98 23.2188 1075.45 22.6491 1075.06 21.9004C1074.68 21.1517 1074.46 20.2402 1074.4 19.166H1071.56V24H1069.94V13.2969H1071.56V17.7891H1074.42C1074.51 16.7995 1074.75 15.9564 1075.14 15.2598C1075.53 14.5632 1076.06 14.0293 1076.72 13.6582C1077.39 13.2871 1078.17 13.1016 1079.07 13.1016C1080 13.1016 1080.82 13.3229 1081.51 13.7656C1082.2 14.2018 1082.74 14.8333 1083.12 15.6602C1083.5 16.4805 1083.7 17.4701 1083.7 18.6289ZM1076.06 18.6289C1076.06 19.5273 1076.16 20.2923 1076.36 20.9238C1076.57 21.5488 1076.89 22.0273 1077.33 22.3594C1077.77 22.6849 1078.34 22.8477 1079.05 22.8477C1079.74 22.8477 1080.31 22.6849 1080.75 22.3594C1081.19 22.0339 1081.51 21.5586 1081.71 20.9336C1081.92 20.3021 1082.03 19.5339 1082.03 18.6289C1082.03 17.737 1081.92 16.9818 1081.71 16.3633C1081.5 15.7448 1081.18 15.276 1080.75 14.957C1080.31 14.6315 1079.74 14.4688 1079.05 14.4688C1078.35 14.4688 1077.78 14.6315 1077.34 14.957C1076.9 15.276 1076.58 15.7448 1076.37 16.3633C1076.16 16.9818 1076.06 17.737 1076.06 18.6289Z" fill="#09A494"/>
<rect x="1115.5" y="0.5" width="124" height="35" rx="7.5" stroke="#09A494"/>
<path d="M1135.85 13.2969V24H1134.22V14.6934H1128.52V24H1126.88V13.2969H1135.85ZM1148.52 18.6289C1148.52 19.5078 1148.4 20.2923 1148.17 20.9824C1147.95 21.6725 1147.62 22.2552 1147.19 22.7305C1146.76 23.2057 1146.24 23.5703 1145.62 23.8242C1145.02 24.0716 1144.33 24.1953 1143.56 24.1953C1142.85 24.1953 1142.19 24.0716 1141.59 23.8242C1141 23.5703 1140.49 23.2057 1140.05 22.7305C1139.62 22.2552 1139.28 21.6725 1139.04 20.9824C1138.81 20.2923 1138.69 19.5078 1138.69 18.6289C1138.69 17.457 1138.89 16.4609 1139.29 15.6406C1139.68 14.8138 1140.25 14.1855 1140.99 13.7559C1141.73 13.3197 1142.61 13.1016 1143.63 13.1016C1144.61 13.1016 1145.46 13.3197 1146.19 13.7559C1146.93 14.1921 1147.5 14.8236 1147.9 15.6504C1148.31 16.4707 1148.52 17.4635 1148.52 18.6289ZM1140.37 18.6289C1140.37 19.4883 1140.49 20.2337 1140.71 20.8652C1140.94 21.4967 1141.29 21.985 1141.77 22.3301C1142.24 22.6751 1142.85 22.8477 1143.6 22.8477C1144.35 22.8477 1144.95 22.6751 1145.43 22.3301C1145.91 21.985 1146.27 21.4967 1146.49 20.8652C1146.72 20.2337 1146.84 19.4883 1146.84 18.6289C1146.84 17.776 1146.72 17.0404 1146.49 16.4219C1146.27 15.7969 1145.91 15.3151 1145.44 14.9766C1144.96 14.638 1144.35 14.4688 1143.59 14.4688C1142.48 14.4688 1141.66 14.8366 1141.14 15.5723C1140.63 16.3079 1140.37 17.3268 1140.37 18.6289ZM1154.82 13.2969H1156.56L1158.93 19.5078C1159.06 19.8724 1159.19 20.224 1159.31 20.5625C1159.42 20.8945 1159.53 21.2135 1159.62 21.5195C1159.71 21.8255 1159.78 22.1217 1159.83 22.4082H1159.9C1159.99 22.0827 1160.12 21.6562 1160.29 21.1289C1160.46 20.5951 1160.64 20.0514 1160.84 19.498L1163.08 13.2969H1164.82L1160.17 25.5723C1159.92 26.2298 1159.63 26.8027 1159.3 27.291C1158.97 27.7793 1158.57 28.1536 1158.11 28.4141C1157.64 28.681 1157.07 28.8145 1156.41 28.8145C1156.1 28.8145 1155.83 28.7949 1155.6 28.7559C1155.36 28.7233 1155.16 28.6842 1154.99 28.6387V27.3398C1155.13 27.3724 1155.31 27.4017 1155.51 27.4277C1155.72 27.4538 1155.93 27.4668 1156.15 27.4668C1156.56 27.4668 1156.9 27.3887 1157.2 27.2324C1157.5 27.0827 1157.75 26.8613 1157.97 26.5684C1158.18 26.2754 1158.37 25.9271 1158.53 25.5234L1159.11 24.0195L1154.82 13.2969ZM1171.56 13.1016C1172.9 13.1016 1173.96 13.5605 1174.76 14.4785C1175.55 15.3965 1175.95 16.7767 1175.95 18.6191C1175.95 19.8366 1175.76 20.8587 1175.4 21.6855C1175.04 22.5124 1174.52 23.1374 1173.86 23.5605C1173.2 23.9837 1172.42 24.1953 1171.52 24.1953C1170.96 24.1953 1170.46 24.1204 1170.03 23.9707C1169.6 23.821 1169.23 23.6191 1168.93 23.3652C1168.62 23.1113 1168.37 22.8346 1168.16 22.5352H1168.05C1168.07 22.7891 1168.09 23.0951 1168.12 23.4531C1168.15 23.8112 1168.16 24.1237 1168.16 24.3906V28.7852H1166.53V13.2969H1167.87L1168.09 14.8789H1168.16C1168.37 14.5534 1168.63 14.2572 1168.93 13.9902C1169.23 13.7168 1169.59 13.502 1170.02 13.3457C1170.46 13.1829 1170.97 13.1016 1171.56 13.1016ZM1171.28 14.4688C1170.54 14.4688 1169.94 14.612 1169.48 14.8984C1169.03 15.1849 1168.7 15.6146 1168.5 16.1875C1168.29 16.7539 1168.18 17.4668 1168.16 18.3262V18.6387C1168.16 19.5436 1168.26 20.3086 1168.46 20.9336C1168.66 21.5586 1168.99 22.0339 1169.44 22.3594C1169.91 22.6849 1170.52 22.8477 1171.3 22.8477C1171.96 22.8477 1172.52 22.6686 1172.96 22.3105C1173.4 21.9525 1173.73 21.4544 1173.95 20.8164C1174.17 20.1719 1174.28 19.4329 1174.28 18.5996C1174.28 17.3366 1174.03 16.334 1173.54 15.5918C1173.05 14.8431 1172.29 14.4688 1171.28 14.4688ZM1188.01 18.6289C1188.01 19.5078 1187.89 20.2923 1187.67 20.9824C1187.44 21.6725 1187.11 22.2552 1186.68 22.7305C1186.25 23.2057 1185.73 23.5703 1185.12 23.8242C1184.51 24.0716 1183.82 24.1953 1183.06 24.1953C1182.34 24.1953 1181.68 24.0716 1181.08 23.8242C1180.49 23.5703 1179.98 23.2057 1179.54 22.7305C1179.11 22.2552 1178.78 21.6725 1178.54 20.9824C1178.3 20.2923 1178.18 19.5078 1178.18 18.6289C1178.18 17.457 1178.38 16.4609 1178.78 15.6406C1179.18 14.8138 1179.74 14.1855 1180.48 13.7559C1181.22 13.3197 1182.1 13.1016 1183.12 13.1016C1184.1 13.1016 1184.95 13.3197 1185.68 13.7559C1186.42 14.1921 1186.99 14.8236 1187.39 15.6504C1187.8 16.4707 1188.01 17.4635 1188.01 18.6289ZM1179.86 18.6289C1179.86 19.4883 1179.98 20.2337 1180.21 20.8652C1180.43 21.4967 1180.78 21.985 1181.26 22.3301C1181.74 22.6751 1182.35 22.8477 1183.1 22.8477C1183.84 22.8477 1184.45 22.6751 1184.92 22.3301C1185.4 21.985 1185.76 21.4967 1185.99 20.8652C1186.21 20.2337 1186.33 19.4883 1186.33 18.6289C1186.33 17.776 1186.21 17.0404 1185.99 16.4219C1185.76 15.7969 1185.41 15.3151 1184.93 14.9766C1184.46 14.638 1183.84 14.4688 1183.09 14.4688C1181.97 14.4688 1181.16 14.8366 1180.63 15.5723C1180.12 16.3079 1179.86 17.3268 1179.86 18.6289ZM1199.32 15.9824C1199.32 16.653 1199.12 17.1771 1198.73 17.5547C1198.34 17.9258 1197.84 18.1764 1197.22 18.3066V18.3848C1197.89 18.4759 1198.46 18.7168 1198.95 19.1074C1199.43 19.4915 1199.68 20.0807 1199.68 20.875C1199.68 21.487 1199.53 22.0273 1199.24 22.4961C1198.95 22.9648 1198.49 23.3327 1197.86 23.5996C1197.24 23.8665 1196.42 24 1195.42 24H1190.81V13.2969H1195.38C1196.15 13.2969 1196.83 13.3848 1197.41 13.5605C1198 13.7298 1198.47 14.0098 1198.81 14.4004C1199.15 14.791 1199.32 15.3184 1199.32 15.9824ZM1197.99 20.875C1197.99 20.2435 1197.75 19.7878 1197.27 19.5078C1196.79 19.2279 1196.1 19.0879 1195.19 19.0879H1192.44V22.6816H1195.22C1196.12 22.6816 1196.81 22.5449 1197.28 22.2715C1197.75 21.9915 1197.99 21.526 1197.99 20.875ZM1197.67 16.168C1197.67 15.6602 1197.48 15.2826 1197.11 15.0352C1196.74 14.7812 1196.13 14.6543 1195.28 14.6543H1192.44V17.7305H1195C1195.88 17.7305 1196.54 17.6035 1196.99 17.3496C1197.44 17.0957 1197.67 16.7018 1197.67 16.168ZM1203.93 13.2969V17.7891H1209.89V13.2969H1211.51V24H1209.89V19.166H1203.93V24H1202.29V13.2969H1203.93ZM1228.71 18.6289C1228.71 19.7943 1228.52 20.7936 1228.14 21.627C1227.77 22.4603 1227.24 23.0983 1226.54 23.541C1225.85 23.9772 1225.01 24.1953 1224.04 24.1953C1223.14 24.1953 1222.35 24 1221.67 23.6094C1221 23.2188 1220.47 22.6491 1220.08 21.9004C1219.69 21.1517 1219.47 20.2402 1219.41 19.166H1216.57V24H1214.95V13.2969H1216.57V17.7891H1219.43C1219.52 16.7995 1219.77 15.9564 1220.16 15.2598C1220.55 14.5632 1221.07 14.0293 1221.74 13.6582C1222.4 13.2871 1223.18 13.1016 1224.08 13.1016C1225.02 13.1016 1225.83 13.3229 1226.52 13.7656C1227.22 14.2018 1227.76 14.8333 1228.13 15.6602C1228.52 16.4805 1228.71 17.4701 1228.71 18.6289ZM1221.07 18.6289C1221.07 19.5273 1221.18 20.2923 1221.38 20.9238C1221.59 21.5488 1221.91 22.0273 1222.34 22.3594C1222.79 22.6849 1223.36 22.8477 1224.06 22.8477C1224.76 22.8477 1225.33 22.6849 1225.76 22.3594C1226.2 22.0339 1226.53 21.5586 1226.73 20.9336C1226.94 20.3021 1227.04 19.5339 1227.04 18.6289C1227.04 17.737 1226.94 16.9818 1226.73 16.3633C1226.52 15.7448 1226.2 15.276 1225.76 14.957C1225.33 14.6315 1224.76 14.4688 1224.06 14.4688C1223.37 14.4688 1222.8 14.6315 1222.35 14.957C1221.92 15.276 1221.6 15.7448 1221.39 16.3633C1221.18 16.9818 1221.07 17.737 1221.07 18.6289Z" fill="#09A494"/>
<path d="M25.625 79.125H4.375L6.25 100.375L15 102.875L23.75 100.375L25.625 79.125Z" fill="#E65100"/>
<path d="M15 81V100.938L22 98.9375L23.5625 81H15Z" fill="#FF6D00"/>
<path d="M15 91.625V89.125H20.375L19.9375 96.3125L15 97.9375V95.3125L17.5625 94.4375L17.75 91.625H15ZM20.5625 86.625L20.75 84.125H15V86.625H20.5625Z" fill="white"/>
<path d="M15 95.3125V97.9375L10.0625 96.3125L9.8125 92.875H12.3125L12.4375 94.4375L15 95.3125ZM11.9375 86.625H15V84.125H9.3125L9.75 91.625H15V89.125H12.125L11.9375 86.625Z" fill="#EEEEEE"/>
<path d="M41.3301 83.8047V88.3457C41.3301 88.6061 41.3236 88.8698 41.3105 89.1367C41.2975 89.3971 41.2747 89.638 41.2422 89.8594H41.3496C41.571 89.4818 41.8509 89.166 42.1895 88.9121C42.5345 88.6517 42.9251 88.4564 43.3613 88.3262C43.7975 88.1895 44.2598 88.1211 44.748 88.1211C45.6074 88.1211 46.3236 88.2578 46.8965 88.5312C47.4759 88.8047 47.9089 89.2279 48.1953 89.8008C48.4883 90.3737 48.6348 91.1159 48.6348 92.0273V99H47.0332V92.1348C47.0332 91.2428 46.8281 90.5755 46.418 90.1328C46.0143 89.6901 45.3926 89.4688 44.5527 89.4688C43.7585 89.4688 43.1237 89.6217 42.6484 89.9277C42.1797 90.2272 41.8411 90.6699 41.6328 91.2559C41.431 91.8418 41.3301 92.5579 41.3301 93.4043V99H39.709V83.8047H41.3301ZM55.4316 97.8672C55.6986 97.8672 55.972 97.8444 56.252 97.7988C56.5319 97.7533 56.7598 97.6979 56.9355 97.6328V98.8926C56.7467 98.9772 56.4831 99.0488 56.1445 99.1074C55.8125 99.166 55.487 99.1953 55.168 99.1953C54.6016 99.1953 54.0872 99.0977 53.625 98.9023C53.1628 98.7005 52.7917 98.362 52.5117 97.8867C52.2383 97.4115 52.1016 96.7539 52.1016 95.9141V89.5664H50.5781V88.7754L52.1113 88.1406L52.7559 85.8164H53.7324V88.2969H56.8672V89.5664H53.7324V95.8652C53.7324 96.5358 53.8854 97.0371 54.1914 97.3691C54.5039 97.7012 54.9173 97.8672 55.4316 97.8672ZM70.7246 88.1016C71.903 88.1016 72.7917 88.4108 73.3906 89.0293C73.9896 89.6413 74.2891 90.6276 74.2891 91.9883V99H72.6875V92.0664C72.6875 91.2005 72.4987 90.5527 72.1211 90.123C71.75 89.6868 71.1966 89.4688 70.4609 89.4688C69.4258 89.4688 68.6738 89.7682 68.2051 90.3672C67.7363 90.9661 67.502 91.8483 67.502 93.0137V99H65.8906V92.0664C65.8906 91.487 65.806 91.0052 65.6367 90.6211C65.474 90.237 65.2266 89.9505 64.8945 89.7617C64.569 89.5664 64.1556 89.4688 63.6543 89.4688C62.9447 89.4688 62.375 89.6152 61.9453 89.9082C61.5156 90.2012 61.2031 90.6374 61.0078 91.2168C60.819 91.7897 60.7246 92.4961 60.7246 93.3359V99H59.1035V88.2969H60.4121L60.6562 89.8105H60.7441C60.959 89.4395 61.2292 89.127 61.5547 88.873C61.8802 88.6191 62.2448 88.4271 62.6484 88.2969C63.0521 88.1667 63.4818 88.1016 63.9375 88.1016C64.7513 88.1016 65.4316 88.2546 65.9785 88.5605C66.5319 88.86 66.9323 89.319 67.1797 89.9375H67.2676C67.6191 89.319 68.1009 88.86 68.7129 88.5605C69.3249 88.2546 69.9954 88.1016 70.7246 88.1016ZM79.25 99H77.6191V83.8047H79.25V99Z" fill="#212121"/>
<rect x="0.5" y="112.5" width="1239" height="17" rx="8.5" stroke="#212121"/>
<rect x="2" y="114" width="500" height="14" rx="7" fill="#09A494"/>
<path d="M25.625 153.125H4.375L6.25 174.375L15 176.875L23.75 174.375L25.625 153.125Z" fill="#0277BD"/>
<path d="M15 155V174.938L22 172.937L23.5625 155H15Z" fill="#039BE5"/>
<path d="M20.6875 158.125H15V160.625H18.0625L17.875 163.125H15V165.625H17.75L17.5625 168.438L15 169.312V171.937L19.9375 170.312L20.375 163.125L20.6875 158.125Z" fill="white"/>
<path d="M15 158.125V160.625H9.4375L9.25 158.125H15ZM12.125 163.125L12.25 165.625H15V163.125H12.125ZM12.375 166.875H9.875L10.0625 170.312L15 171.937V169.312L12.4375 168.438L12.375 166.875Z" fill="#EEEEEE"/>
<path d="M43.9961 173.195C43.0326 173.195 42.1829 172.997 41.4473 172.6C40.7116 172.202 40.1387 171.597 39.7285 170.783C39.3184 169.969 39.1133 168.944 39.1133 167.707C39.1133 166.411 39.3281 165.354 39.7578 164.533C40.194 163.706 40.793 163.094 41.5547 162.697C42.3164 162.3 43.1823 162.102 44.1523 162.102C44.6862 162.102 45.2005 162.157 45.6953 162.268C46.1966 162.372 46.6068 162.505 46.9258 162.668L46.4375 164.025C46.112 163.895 45.7344 163.778 45.3047 163.674C44.8815 163.57 44.4844 163.518 44.1133 163.518C43.3711 163.518 42.7526 163.677 42.2578 163.996C41.7695 164.315 41.4017 164.784 41.1543 165.402C40.9134 166.021 40.793 166.783 40.793 167.688C40.793 168.553 40.9102 169.292 41.1445 169.904C41.3854 170.516 41.7402 170.985 42.209 171.311C42.6842 171.63 43.2767 171.789 43.9863 171.789C44.5527 171.789 45.0638 171.73 45.5195 171.613C45.9753 171.49 46.3887 171.346 46.7598 171.184V172.629C46.4017 172.811 46.0013 172.951 45.5586 173.049C45.1224 173.146 44.6016 173.195 43.9961 173.195ZM56.2227 170.07C56.2227 170.754 56.0501 171.33 55.7051 171.799C55.3665 172.261 54.8783 172.609 54.2402 172.844C53.6087 173.078 52.8535 173.195 51.9746 173.195C51.2259 173.195 50.5781 173.137 50.0312 173.02C49.4844 172.902 49.0059 172.736 48.5957 172.521V171.027C49.0319 171.242 49.5527 171.438 50.1582 171.613C50.7637 171.789 51.3822 171.877 52.0137 171.877C52.9382 171.877 53.6087 171.727 54.0254 171.428C54.4421 171.128 54.6504 170.721 54.6504 170.207C54.6504 169.914 54.5658 169.657 54.3965 169.436C54.2337 169.208 53.957 168.99 53.5664 168.781C53.1758 168.566 52.6354 168.332 51.9453 168.078C51.2617 167.818 50.6693 167.561 50.168 167.307C49.6732 167.046 49.2891 166.73 49.0156 166.359C48.7487 165.988 48.6152 165.507 48.6152 164.914C48.6152 164.009 48.9798 163.316 49.709 162.834C50.4447 162.346 51.4082 162.102 52.5996 162.102C53.2441 162.102 53.8464 162.167 54.4062 162.297C54.9727 162.421 55.5 162.59 55.9883 162.805L55.4414 164.104C54.9987 163.915 54.5267 163.755 54.0254 163.625C53.5241 163.495 53.013 163.43 52.4922 163.43C51.7435 163.43 51.1673 163.553 50.7637 163.801C50.3665 164.048 50.168 164.387 50.168 164.816C50.168 165.148 50.2591 165.422 50.4414 165.637C50.6302 165.852 50.9297 166.053 51.3398 166.242C51.75 166.431 52.2904 166.652 52.9609 166.906C53.6315 167.154 54.2109 167.411 54.6992 167.678C55.1875 167.938 55.5618 168.257 55.8223 168.635C56.0892 169.006 56.2227 169.484 56.2227 170.07ZM65.7539 170.07C65.7539 170.754 65.5814 171.33 65.2363 171.799C64.8978 172.261 64.4095 172.609 63.7715 172.844C63.14 173.078 62.3848 173.195 61.5059 173.195C60.7572 173.195 60.1094 173.137 59.5625 173.02C59.0156 172.902 58.5371 172.736 58.127 172.521V171.027C58.5632 171.242 59.084 171.438 59.6895 171.613C60.2949 171.789 60.9134 171.877 61.5449 171.877C62.4694 171.877 63.14 171.727 63.5566 171.428C63.9733 171.128 64.1816 170.721 64.1816 170.207C64.1816 169.914 64.097 169.657 63.9277 169.436C63.765 169.208 63.4883 168.99 63.0977 168.781C62.707 168.566 62.1667 168.332 61.4766 168.078C60.793 167.818 60.2005 167.561 59.6992 167.307C59.2044 167.046 58.8203 166.73 58.5469 166.359C58.2799 165.988 58.1465 165.507 58.1465 164.914C58.1465 164.009 58.5111 163.316 59.2402 162.834C59.9759 162.346 60.9395 162.102 62.1309 162.102C62.7754 162.102 63.3776 162.167 63.9375 162.297C64.5039 162.421 65.0312 162.59 65.5195 162.805L64.9727 164.104C64.5299 163.915 64.0579 163.755 63.5566 163.625C63.0553 163.495 62.5443 163.43 62.0234 163.43C61.2747 163.43 60.6986 163.553 60.2949 163.801C59.8978 164.048 59.6992 164.387 59.6992 164.816C59.6992 165.148 59.7904 165.422 59.9727 165.637C60.1615 165.852 60.4609 166.053 60.8711 166.242C61.2812 166.431 61.8216 166.652 62.4922 166.906C63.1628 167.154 63.7422 167.411 64.2305 167.678C64.7188 167.938 65.0931 168.257 65.3535 168.635C65.6204 169.006 65.7539 169.484 65.7539 170.07Z" fill="#212121"/>
<rect x="0.5" y="186.5" width="1239" height="17" rx="8.5" stroke="#212121"/>
<rect x="2" y="188" width="500" height="14" rx="7" fill="#09A494"/>
<path d="M15.0294 227.125C14.0575 227.128 13.3838 227.214 12.5694 227.354C10.1644 227.773 9.72628 228.652 9.72628 230.273V232.75H15.3513V234H9.51253H6.79378C5.14628 234 3.70441 234.776 3.24753 236.637C2.73128 238.772 2.70816 240.11 3.24753 242.34C3.65691 244.003 4.55878 245.25 6.20691 245.25H8.47691V242.06C8.47691 240.206 10.1557 238.375 12.0794 238.375H16.6019C18.1788 238.375 19.7269 237.211 19.7269 235.639V230.273C19.7269 228.749 18.6275 227.609 17.0907 227.353C17.1288 227.349 15.9932 227.121 15.0294 227.125ZM11.9144 229.625C12.4275 229.625 12.8519 230.048 12.8519 230.564C12.8519 231.084 12.4275 231.5 11.9144 231.5C11.3913 231.5 10.9769 231.085 10.9769 230.564C10.9769 230.05 11.3913 229.625 11.9144 229.625Z" fill="#0277BD"/>
<path d="M14.4238 250.875C15.3956 250.872 16.0694 250.786 16.8838 250.646C19.2888 250.227 19.7269 249.347 19.7269 247.727V245.25H14.1019V244H19.9413H22.66C24.3075 244 25.7494 243.224 26.2063 241.363C26.7225 239.227 26.7456 237.89 26.2063 235.66C25.7963 233.997 24.8944 232.75 23.2463 232.75H20.9763V235.94C20.9763 237.794 19.2975 239.625 17.3738 239.625H12.8513C11.2744 239.625 9.72626 240.789 9.72626 242.361V247.727C9.72626 249.251 10.8256 250.391 12.3625 250.647C12.3244 250.651 13.46 250.879 14.4238 250.875ZM17.5394 248.375C17.0263 248.375 16.6019 247.952 16.6019 247.436C16.6019 246.916 17.0263 246.5 17.5394 246.5C18.0625 246.5 18.4769 246.915 18.4769 247.436C18.4769 247.95 18.0619 248.375 17.5394 248.375Z" fill="#FFC107"/>
<path d="M44.7383 236.102C46.0729 236.102 47.1374 236.561 47.9316 237.479C48.7259 238.396 49.123 239.777 49.123 241.619C49.123 242.837 48.9408 243.859 48.5762 244.686C48.2116 245.512 47.6973 246.137 47.0332 246.561C46.3757 246.984 45.5977 247.195 44.6992 247.195C44.1328 247.195 43.6348 247.12 43.2051 246.971C42.7754 246.821 42.4076 246.619 42.1016 246.365C41.7956 246.111 41.5417 245.835 41.3398 245.535H41.2227C41.2422 245.789 41.265 246.095 41.291 246.453C41.3236 246.811 41.3398 247.124 41.3398 247.391V251.785H39.709V236.297H41.0469L41.2617 237.879H41.3398C41.5482 237.553 41.8021 237.257 42.1016 236.99C42.401 236.717 42.7656 236.502 43.1953 236.346C43.6315 236.183 44.1458 236.102 44.7383 236.102ZM44.4551 237.469C43.7129 237.469 43.1139 237.612 42.6582 237.898C42.209 238.185 41.8802 238.615 41.6719 239.188C41.4635 239.754 41.3529 240.467 41.3398 241.326V241.639C41.3398 242.544 41.4375 243.309 41.6328 243.934C41.8346 244.559 42.1634 245.034 42.6191 245.359C43.0814 245.685 43.6999 245.848 44.4746 245.848C45.1387 245.848 45.6921 245.669 46.1348 245.311C46.5775 244.952 46.9062 244.454 47.1211 243.816C47.3424 243.172 47.4531 242.433 47.4531 241.6C47.4531 240.337 47.2057 239.334 46.7109 238.592C46.2227 237.843 45.4707 237.469 44.4551 237.469ZM50.2656 236.297H52.0039L54.3672 242.508C54.5039 242.872 54.6309 243.224 54.748 243.562C54.8652 243.895 54.9694 244.214 55.0605 244.52C55.1517 244.826 55.2233 245.122 55.2754 245.408H55.3438C55.4349 245.083 55.5651 244.656 55.7344 244.129C55.9036 243.595 56.0859 243.051 56.2812 242.498L58.5176 236.297H60.2656L55.6074 248.572C55.36 249.23 55.0703 249.803 54.7383 250.291C54.4128 250.779 54.0156 251.154 53.5469 251.414C53.0781 251.681 52.5117 251.814 51.8477 251.814C51.5417 251.814 51.2715 251.795 51.0371 251.756C50.8027 251.723 50.6009 251.684 50.4316 251.639V250.34C50.5749 250.372 50.7474 250.402 50.9492 250.428C51.1576 250.454 51.3724 250.467 51.5938 250.467C51.9974 250.467 52.3457 250.389 52.6387 250.232C52.9382 250.083 53.1953 249.861 53.4102 249.568C53.625 249.275 53.8105 248.927 53.9668 248.523L54.5527 247.02L50.2656 236.297ZM65.4316 245.867C65.6986 245.867 65.972 245.844 66.252 245.799C66.5319 245.753 66.7598 245.698 66.9355 245.633V246.893C66.7467 246.977 66.4831 247.049 66.1445 247.107C65.8125 247.166 65.487 247.195 65.168 247.195C64.6016 247.195 64.0872 247.098 63.625 246.902C63.1628 246.701 62.7917 246.362 62.5117 245.887C62.2383 245.411 62.1016 244.754 62.1016 243.914V237.566H60.5781V236.775L62.1113 236.141L62.7559 233.816H63.7324V236.297H66.8672V237.566H63.7324V243.865C63.7324 244.536 63.8854 245.037 64.1914 245.369C64.5039 245.701 64.9173 245.867 65.4316 245.867ZM70.7246 231.805V236.346C70.7246 236.606 70.7181 236.87 70.7051 237.137C70.6921 237.397 70.6693 237.638 70.6367 237.859H70.7441C70.9655 237.482 71.2454 237.166 71.584 236.912C71.929 236.652 72.3197 236.456 72.7559 236.326C73.1921 236.189 73.6543 236.121 74.1426 236.121C75.002 236.121 75.7181 236.258 76.291 236.531C76.8704 236.805 77.3034 237.228 77.5898 237.801C77.8828 238.374 78.0293 239.116 78.0293 240.027V247H76.4277V240.135C76.4277 239.243 76.2227 238.576 75.8125 238.133C75.4089 237.69 74.7871 237.469 73.9473 237.469C73.153 237.469 72.5182 237.622 72.043 237.928C71.5742 238.227 71.2357 238.67 71.0273 239.256C70.8255 239.842 70.7246 240.558 70.7246 241.404V247H69.1035V231.805H70.7246ZM90.5977 241.629C90.5977 242.508 90.4837 243.292 90.2559 243.982C90.028 244.673 89.6992 245.255 89.2695 245.73C88.8398 246.206 88.319 246.57 87.707 246.824C87.1016 247.072 86.4147 247.195 85.6465 247.195C84.9303 247.195 84.2728 247.072 83.6738 246.824C83.0814 246.57 82.5671 246.206 82.1309 245.73C81.7012 245.255 81.3659 244.673 81.125 243.982C80.8906 243.292 80.7734 242.508 80.7734 241.629C80.7734 240.457 80.972 239.461 81.3691 238.641C81.7663 237.814 82.3327 237.186 83.0684 236.756C83.8105 236.32 84.6927 236.102 85.7148 236.102C86.6914 236.102 87.5443 236.32 88.2734 236.756C89.0091 237.192 89.5788 237.824 89.9824 238.65C90.3926 239.471 90.5977 240.464 90.5977 241.629ZM82.4531 241.629C82.4531 242.488 82.5671 243.234 82.7949 243.865C83.0228 244.497 83.3743 244.985 83.8496 245.33C84.3249 245.675 84.9368 245.848 85.6855 245.848C86.4277 245.848 87.0365 245.675 87.5117 245.33C87.9935 244.985 88.3483 244.497 88.5762 243.865C88.804 243.234 88.918 242.488 88.918 241.629C88.918 240.776 88.804 240.04 88.5762 239.422C88.3483 238.797 87.9967 238.315 87.5215 237.977C87.0462 237.638 86.431 237.469 85.6758 237.469C84.5625 237.469 83.7454 237.837 83.2246 238.572C82.7103 239.308 82.4531 240.327 82.4531 241.629ZM98.4688 236.102C99.7383 236.102 100.699 236.414 101.35 237.039C102.001 237.658 102.326 238.654 102.326 240.027V247H100.725V240.135C100.725 239.243 100.52 238.576 100.109 238.133C99.7057 237.69 99.084 237.469 98.2441 237.469C97.0592 237.469 96.2259 237.804 95.7441 238.475C95.2624 239.145 95.0215 240.118 95.0215 241.395V247H93.4004V236.297H94.709L94.9531 237.84H95.041C95.2689 237.462 95.5586 237.146 95.9102 236.893C96.2617 236.632 96.6556 236.437 97.0918 236.307C97.528 236.17 97.987 236.102 98.4688 236.102Z" fill="#212121"/>
<rect x="0.5" y="260.5" width="1239" height="17" rx="8.5" stroke="#212121"/>
<rect x="2" y="262" width="500" height="14" rx="7" fill="#09A494"/>
<path fill-rule="evenodd" clip-rule="evenodd" d="M14.3144 300.054C14.7387 299.816 15.2613 299.816 15.685 300.054C17.7819 301.231 24.0919 304.773 26.1894 305.95C26.6138 306.188 26.875 306.628 26.875 307.104C26.875 309.458 26.875 316.542 26.875 318.896C26.875 319.372 26.6138 319.812 26.1894 320.05C24.0925 321.227 17.7825 324.769 15.685 325.946C15.2606 326.184 14.7381 326.184 14.3144 325.946C12.2175 324.769 5.9075 321.227 3.81 320.05C3.38625 319.812 3.125 319.373 3.125 318.896C3.125 316.543 3.125 309.458 3.125 307.104C3.125 306.628 3.38625 306.188 3.81063 305.95C5.90688 304.773 12.2181 301.231 14.3144 300.054Z" fill="url(#paint0_linear_4_352)"/>
<path fill-rule="evenodd" clip-rule="evenodd" d="M3.315 319.503C3.14875 319.28 3.125 319.069 3.125 318.784C3.125 316.444 3.125 309.401 3.125 307.06C3.125 306.586 3.38562 306.149 3.80875 305.913C5.89812 304.743 12.1869 301.221 14.2762 300.05C14.6994 299.813 15.2725 299.818 15.6956 300.055C17.785 301.225 24.0525 304.717 26.1419 305.887C26.3106 305.982 26.4394 306.096 26.5544 306.247L3.315 319.503Z" fill="url(#paint1_linear_4_352)"/>
<path fill-rule="evenodd" clip-rule="evenodd" d="M15 304.25C19.8294 304.25 23.75 308.171 23.75 313C23.75 317.829 19.8294 321.75 15 321.75C10.1706 321.75 6.25 317.829 6.25 313C6.25 308.171 10.1706 304.25 15 304.25ZM15 308.625C17.4144 308.625 19.375 310.585 19.375 313C19.375 315.414 17.4144 317.375 15 317.375C12.5856 317.375 10.625 315.414 10.625 313C10.625 310.585 12.585 308.625 15 308.625Z" fill="white"/>
<path fill-rule="evenodd" clip-rule="evenodd" d="M26.5531 306.253C26.8756 306.555 26.8694 307.01 26.8694 307.368C26.8694 309.74 26.8494 316.486 26.875 318.858C26.8775 319.106 26.7956 319.366 26.6731 319.563L14.7456 313L26.5531 306.253Z" fill="url(#paint2_linear_4_352)"/>
<g opacity="0.05">
<path fill-rule="evenodd" clip-rule="evenodd" d="M20.625 311.125V312.375H21.875V313.625H20.625V314.875H19.375V313.625H18.125V312.375H19.375V311.125H20.625ZM21.25 310.5H20.625H19.375H18.75V311.125V311.75H18.125H17.5V312.375V313.625V314.25H18.125H18.75V314.875V315.5H19.375H20.625H21.25V314.875V314.25H21.875H22.5V313.625V312.375V311.75H21.875H21.25V311.125V310.5Z" fill="black"/>
<path fill-rule="evenodd" clip-rule="evenodd" d="M25 311.125V312.375H26.25V313.625H25V314.875H23.75V313.625H22.5V312.375H23.75V311.125H25ZM25.625 310.5H25H23.75H23.125V311.125V311.75H22.5H21.875V312.375V313.625V314.25H22.5H23.125V314.875V315.5H23.75H25H25.625V314.875V314.25H26.25H26.875V313.625V312.375V311.75H26.25H25.625V311.125V310.5Z" fill="black"/>
</g>
<g opacity="0.07">
<path fill-rule="evenodd" clip-rule="evenodd" d="M20.625 311.125V312.375H21.875V313.625H20.625V314.875H19.375V313.625H18.125V312.375H19.375V311.125H20.625ZM20.9375 310.812H20.625H19.375H19.0625V311.125V312.062H18.125H17.8125V312.375V313.625V313.938H18.125H19.0625V314.875V315.188H19.375H20.625H20.9375V314.875V313.938H21.875H22.1875V313.625V312.375V312.062H21.875H20.9375V311.125V310.812Z" fill="black"/>
<path fill-rule="evenodd" clip-rule="evenodd" d="M25 311.125V312.375H26.25V313.625H25V314.875H23.75V313.625H22.5V312.375H23.75V311.125H25ZM25.3125 310.812H25H23.75H23.4375V311.125V312.062H22.5H22.1875V312.375V313.625V313.938H22.5H23.4375V314.875V315.188H23.75H25H25.3125V314.875V313.938H26.25H26.5625V313.625V312.375V312.062H26.25H25.3125V311.125V310.812Z" fill="black"/>
</g>
<path fill-rule="evenodd" clip-rule="evenodd" d="M20.625 311.125H19.375V312.375H18.125V313.625H19.375V314.875H20.625V313.625H21.875V312.375H20.625V311.125Z" fill="white"/>
<path fill-rule="evenodd" clip-rule="evenodd" d="M26.25 312.375H25V311.125H23.75V312.375H22.5V313.625H23.75V314.875H25V313.625H26.25V312.375Z" fill="white"/>
<path opacity="0.05" fill-rule="evenodd" clip-rule="evenodd" d="M15 304.25C18.205 304.25 21.0013 305.982 22.5256 308.554L18.73 310.723C17.9606 309.467 16.5794 308.625 15 308.625C12.585 308.625 10.625 310.585 10.625 313C10.625 315.414 12.5856 317.375 15 317.375C16.6062 317.375 18.0075 316.505 18.7681 315.213L22.6006 317.322C21.0938 319.964 18.2563 321.75 15 321.75C10.1706 321.75 6.25 317.829 6.25 313C6.25 308.171 10.1706 304.25 15 304.25ZM15 303.625C9.83063 303.625 5.625 307.831 5.625 313C5.625 318.169 9.83063 322.375 15 322.375C18.3544 322.375 21.475 320.558 23.1437 317.631L23.4581 317.08L22.9019 316.774L19.0694 314.665L18.5375 314.372L18.2294 314.896C17.5562 316.039 16.3188 316.75 15 316.75C12.9325 316.75 11.25 315.068 11.25 313C11.25 310.932 12.9325 309.25 15 309.25C16.3119 309.25 17.5069 309.922 18.1969 311.049L18.5138 311.567L19.04 311.266L22.8356 309.098L23.3869 308.783L23.0631 308.236C21.3781 305.392 18.2887 303.625 15 303.625Z" fill="black"/>
<path opacity="0.07" fill-rule="evenodd" clip-rule="evenodd" d="M15 304.25C18.205 304.25 21.0013 305.982 22.5256 308.554L18.73 310.723C17.9606 309.467 16.5794 308.625 15 308.625C12.585 308.625 10.625 310.585 10.625 313C10.625 315.414 12.5856 317.375 15 317.375C16.6062 317.375 18.0075 316.505 18.7681 315.213L22.6006 317.322C21.0938 319.964 18.2563 321.75 15 321.75C10.1706 321.75 6.25 317.829 6.25 313C6.25 308.171 10.1706 304.25 15 304.25ZM15 303.938C10.0031 303.938 5.9375 308.003 5.9375 313C5.9375 317.997 10.0031 322.062 15 322.062C18.2425 322.062 21.2588 320.305 22.8719 317.477L23.0294 317.201L22.7513 317.048L18.9188 314.939L18.6531 314.793L18.4994 315.054C17.7694 316.293 16.4288 317.062 15 317.062C12.76 317.062 10.9375 315.24 10.9375 313C10.9375 310.76 12.76 308.938 15 308.938C16.4219 308.938 17.7162 309.666 18.4637 310.886L18.6219 311.145L18.885 310.994L22.6806 308.826L22.9562 308.668L22.7944 308.395C21.165 305.646 18.1788 303.938 15 303.938Z" fill="black"/>
<path d="M43.9961 321.195C43.0326 321.195 42.1829 320.997 41.4473 320.6C40.7116 320.202 40.1387 319.597 39.7285 318.783C39.3184 317.969 39.1133 316.944 39.1133 315.707C39.1133 314.411 39.3281 313.354 39.7578 312.533C40.194 311.706 40.793 311.094 41.5547 310.697C42.3164 310.3 43.1823 310.102 44.1523 310.102C44.6862 310.102 45.2005 310.157 45.6953 310.268C46.1966 310.372 46.6068 310.505 46.9258 310.668L46.4375 312.025C46.112 311.895 45.7344 311.778 45.3047 311.674C44.8815 311.57 44.4844 311.518 44.1133 311.518C43.3711 311.518 42.7526 311.677 42.2578 311.996C41.7695 312.315 41.4017 312.784 41.1543 313.402C40.9134 314.021 40.793 314.783 40.793 315.688C40.793 316.553 40.9102 317.292 41.1445 317.904C41.3854 318.516 41.7402 318.985 42.209 319.311C42.6842 319.63 43.2767 319.789 43.9863 319.789C44.5527 319.789 45.0638 319.73 45.5195 319.613C45.9753 319.49 46.3887 319.346 46.7598 319.184V320.629C46.4017 320.811 46.0013 320.951 45.5586 321.049C45.1224 321.146 44.6016 321.195 43.9961 321.195ZM53.957 313.285H57.9805V314.613H53.957V318.754H52.6191V314.613H48.5957V313.285H52.6191V309.125H53.957V313.285ZM65.4023 313.285H69.4258V314.613H65.4023V318.754H64.0645V314.613H60.041V313.285H64.0645V309.125H65.4023V313.285Z" fill="#212121"/>
<rect x="0.5" y="334.5" width="1239" height="17" rx="8.5" stroke="#212121"/>
<rect x="2" y="336" width="500" height="14" rx="7" fill="#09A494"/>
<defs>
<linearGradient id="paint0_linear_4_352" x1="3.125" y1="313" x2="26.875" y2="313" gradientUnits="userSpaceOnUse">
<stop offset="0.002" stop-color="#427FDB"/>
<stop offset="0.397" stop-color="#2668CB"/>
<stop offset="0.763" stop-color="#1358BF"/>
<stop offset="1" stop-color="#0C52BB"/>
</linearGradient>
<linearGradient id="paint1_linear_4_352" x1="3.125" y1="309.689" x2="26.5544" y2="309.689" gradientUnits="userSpaceOnUse">
<stop stop-color="#32BDEF"/>
<stop offset="1" stop-color="#1EA2E4"/>
</linearGradient>
<linearGradient id="paint2_linear_4_352" x1="14.7456" y1="312.908" x2="26.875" y2="312.908" gradientUnits="userSpaceOnUse">
<stop stop-color="#2AA4F4"/>
<stop offset="1" stop-color="#007AD9"/>
</linearGradient>
</defs>
</svg>
