<svg width="1240" height="196" viewBox="0 0 1240 196" fill="none" xmlns="http://www.w3.org/2000/svg">
<path d="M11.7627 30L6.60645 13.1982H6.47461C6.49414 13.5986 6.52344 14.2041 6.5625 15.0146C6.61133 15.8154 6.65527 16.6699 6.69434 17.5781C6.7334 18.4863 6.75293 19.3066 6.75293 20.0391V30H2.69531V8.58398H8.87695L13.9453 24.9609H14.0332L19.4092 8.58398H25.5908V30H21.3574V19.8633C21.3574 19.1895 21.3672 18.4131 21.3867 17.5342C21.416 16.6553 21.4502 15.8203 21.4893 15.0293C21.5283 14.2285 21.5576 13.6279 21.5771 13.2275H21.4453L15.9229 30H11.7627ZM45.5273 21.7822C45.5273 23.1494 45.3418 24.3604 44.9707 25.415C44.6094 26.4697 44.0771 27.3633 43.374 28.0957C42.6807 28.8184 41.8408 29.3652 40.8545 29.7363C39.8779 30.1074 38.7744 30.293 37.5439 30.293C36.3916 30.293 35.332 30.1074 34.3652 29.7363C33.4082 29.3652 32.5732 28.8184 31.8604 28.0957C31.1572 27.3633 30.6104 26.4697 30.2197 25.415C29.8389 24.3604 29.6484 23.1494 29.6484 21.7822C29.6484 19.9658 29.9707 18.4277 30.6152 17.168C31.2598 15.9082 32.1777 14.9512 33.3691 14.2969C34.5605 13.6426 35.9814 13.3154 37.6318 13.3154C39.165 13.3154 40.5225 13.6426 41.7041 14.2969C42.8955 14.9512 43.8281 15.9082 44.502 17.168C45.1855 18.4277 45.5273 19.9658 45.5273 21.7822ZM34.2041 21.7822C34.2041 22.8564 34.3213 23.7598 34.5557 24.4922C34.79 25.2246 35.1562 25.7764 35.6543 26.1475C36.1523 26.5186 36.8018 26.7041 37.6025 26.7041C38.3936 26.7041 39.0332 26.5186 39.5215 26.1475C40.0195 25.7764 40.3809 25.2246 40.6055 24.4922C40.8398 23.7598 40.957 22.8564 40.957 21.7822C40.957 20.6982 40.8398 19.7998 40.6055 19.0869C40.3809 18.3643 40.0195 17.8223 39.5215 17.4609C39.0234 17.0996 38.374 16.9189 37.5732 16.9189C36.3916 16.9189 35.5322 17.3242 34.9951 18.1348C34.4678 18.9453 34.2041 20.1611 34.2041 21.7822ZM53.54 13.623V20.0977C53.54 20.4297 53.5254 20.8496 53.4961 21.3574C53.4766 21.8555 53.4473 22.3633 53.4082 22.8809C53.3691 23.3984 53.3301 23.8623 53.291 24.2725C53.252 24.6826 53.2227 24.9609 53.2031 25.1074L60.7617 13.623H66.1377V30H61.8164V23.4668C61.8164 22.9297 61.8359 22.3389 61.875 21.6943C61.9141 21.04 61.958 20.4248 62.0068 19.8486C62.0557 19.2725 62.0898 18.8379 62.1094 18.5449L54.5801 30H49.2188V13.623H53.54ZM89.3701 13.623H94.292L87.8027 21.4746L94.8633 30H89.7949L83.1006 21.6943V30H78.6328V13.623H83.1006V21.5771L89.3701 13.623ZM112.09 21.7822C112.09 23.1494 111.904 24.3604 111.533 25.415C111.172 26.4697 110.64 27.3633 109.937 28.0957C109.243 28.8184 108.403 29.3652 107.417 29.7363C106.44 30.1074 105.337 30.293 104.106 30.293C102.954 30.293 101.895 30.1074 100.928 29.7363C99.9707 29.3652 99.1357 28.8184 98.4229 28.0957C97.7197 27.3633 97.1729 26.4697 96.7822 25.415C96.4014 24.3604 96.2109 23.1494 96.2109 21.7822C96.2109 19.9658 96.5332 18.4277 97.1777 17.168C97.8223 15.9082 98.7402 14.9512 99.9316 14.2969C101.123 13.6426 102.544 13.3154 104.194 13.3154C105.728 13.3154 107.085 13.6426 108.267 14.2969C109.458 14.9512 110.391 15.9082 111.064 17.168C111.748 18.4277 112.09 19.9658 112.09 21.7822ZM100.767 21.7822C100.767 22.8564 100.884 23.7598 101.118 24.4922C101.353 25.2246 101.719 25.7764 102.217 26.1475C102.715 26.5186 103.364 26.7041 104.165 26.7041C104.956 26.7041 105.596 26.5186 106.084 26.1475C106.582 25.7764 106.943 25.2246 107.168 24.4922C107.402 23.7598 107.52 22.8564 107.52 21.7822C107.52 20.6982 107.402 19.7998 107.168 19.0869C106.943 18.3643 106.582 17.8223 106.084 17.4609C105.586 17.0996 104.937 16.9189 104.136 16.9189C102.954 16.9189 102.095 17.3242 101.558 18.1348C101.03 18.9453 100.767 20.1611 100.767 21.7822ZM120.249 13.623V19.9219H126.489V13.623H130.957V30H126.489V23.2471H120.249V30H115.781V13.623H120.249ZM149.194 16.9775H143.833V30H139.365V16.9775H133.989V13.623H149.194V16.9775ZM158.965 13.2861C161.162 13.2861 162.847 13.7646 164.019 14.7217C165.19 15.6787 165.776 17.1338 165.776 19.0869V30H162.656L161.792 27.7734H161.675C161.206 28.3594 160.728 28.8379 160.239 29.209C159.751 29.5801 159.189 29.8535 158.555 30.0293C157.92 30.2051 157.148 30.293 156.24 30.293C155.273 30.293 154.404 30.1074 153.633 29.7363C152.871 29.3652 152.271 28.7988 151.831 28.0371C151.392 27.2656 151.172 26.2891 151.172 25.1074C151.172 23.3691 151.782 22.0898 153.003 21.2695C154.224 20.4395 156.055 19.9805 158.496 19.8926L161.338 19.8047V19.0869C161.338 18.2275 161.113 17.5977 160.664 17.1973C160.215 16.7969 159.59 16.5967 158.789 16.5967C157.998 16.5967 157.222 16.709 156.46 16.9336C155.698 17.1582 154.937 17.4414 154.175 17.7832L152.695 14.7656C153.564 14.3066 154.536 13.9453 155.61 13.6816C156.694 13.418 157.812 13.2861 158.965 13.2861ZM161.338 22.4121L159.609 22.4707C158.164 22.5098 157.158 22.7686 156.592 23.2471C156.035 23.7256 155.757 24.3555 155.757 25.1367C155.757 25.8203 155.957 26.3086 156.357 26.6016C156.758 26.8848 157.28 27.0264 157.925 27.0264C158.882 27.0264 159.688 26.7432 160.342 26.1768C161.006 25.6104 161.338 24.8047 161.338 23.7598V22.4121ZM181.128 13.623H186.05L179.561 21.4746L186.621 30H181.553L174.858 21.6943V30H170.391V13.623H174.858V21.5771L181.128 13.623ZM202.515 16.9775H197.153V30H192.686V16.9775H187.31V13.623H202.515V16.9775ZM205.576 30V13.623H210.044V19.9512H212.197C213.867 19.9512 215.244 20.127 216.328 20.4785C217.422 20.8301 218.232 21.3672 218.76 22.0898C219.287 22.8027 219.551 23.7012 219.551 24.7852C219.551 25.8398 219.307 26.7578 218.818 27.5391C218.33 28.3203 217.559 28.9258 216.504 29.3555C215.449 29.7852 214.067 30 212.358 30H205.576ZM210.044 26.9092H212.109C212.979 26.9092 213.691 26.7529 214.248 26.4404C214.805 26.1182 215.083 25.5859 215.083 24.8438C215.083 24.209 214.829 23.75 214.321 23.4668C213.813 23.1836 213.057 23.042 212.051 23.042H210.044V26.9092ZM221.924 30V13.623H226.392V30H221.924Z" fill="#212121"/>
<g clip-path="url(#clip0_1_108)">
<path d="M28.1578 97.1819C28.1081 97.1406 22.4934 93.1225 20.97 93.3859C20.2378 93.5153 19.8188 94.0141 18.9797 95.0144C18.7477 95.2926 18.5105 95.5664 18.2681 95.8356C17.7378 95.6629 17.2205 95.4523 16.7203 95.2056C14.138 93.9484 12.0516 91.862 10.7944 89.2797C10.5477 88.7795 10.3371 88.2622 10.1644 87.7319C10.44 87.4797 10.8263 87.1544 10.9913 87.0156C11.9859 86.1812 12.4847 85.7622 12.6141 85.0291C12.8794 83.5112 8.85938 77.8919 8.81813 77.8413C8.63505 77.5816 8.39662 77.3659 8.12003 77.2096C7.84345 77.0533 7.53561 76.9604 7.21875 76.9375C5.58938 76.9375 0.9375 82.9713 0.9375 83.9884C0.9375 84.0475 1.02281 90.0512 8.42625 97.5822C15.9488 104.977 21.9525 105.062 22.0116 105.062C23.0287 105.062 29.0625 100.411 29.0625 98.7812C29.0397 98.4643 28.9466 98.1563 28.7902 97.8797C28.6337 97.6031 28.4177 97.3648 28.1578 97.1819ZM21.9084 103.182C21.0891 103.114 16.0509 102.45 9.75187 96.2612C3.53156 89.9284 2.88375 84.8763 2.81906 84.0934C4.04792 82.1647 5.53199 80.411 7.23094 78.88C7.26844 78.9175 7.31813 78.9738 7.38188 79.0469C8.68484 80.8255 9.80726 82.7296 10.7325 84.7309C10.4316 85.0336 10.1136 85.3188 9.78 85.585C9.26268 85.9792 8.78764 86.4259 8.3625 86.9181L8.13469 87.2369L8.20219 87.6222C8.40059 88.4816 8.70446 89.3132 9.10687 90.0981C10.5486 93.0588 12.941 95.4508 15.9019 96.8922C16.6866 97.2952 17.5183 97.5994 18.3778 97.7978L18.7631 97.8653L19.0819 97.6375C19.5759 97.2105 20.0246 96.7336 20.4206 96.2144C20.7141 95.8638 21.1069 95.3959 21.255 95.2638C23.262 96.1881 25.171 97.3119 26.9531 98.6181C27.0309 98.6838 27.0853 98.7344 27.1219 98.7672C25.5912 100.467 23.8374 101.951 21.9084 103.18V103.182Z" fill="black"/>
</g>
<path d="M48.3672 91.2852H52.3906V92.6133H48.3672V96.7539H47.0293V92.6133H43.0059V91.2852H47.0293V87.125H48.3672V91.2852ZM56.2773 99L62.1367 86.207H54.3535V84.7227H63.875V85.9727L58.0547 99H56.2773ZM80.4473 90.8066C80.4473 91.6725 80.3854 92.5156 80.2617 93.3359C80.1445 94.1562 79.9395 94.9212 79.6465 95.6309C79.36 96.3405 78.9694 96.9622 78.4746 97.4961C77.9798 98.0299 77.3581 98.4499 76.6094 98.7559C75.8672 99.0553 74.9785 99.2051 73.9434 99.2051C73.6634 99.2051 73.3444 99.1855 72.9863 99.1465C72.6283 99.1139 72.3353 99.0651 72.1074 99V97.5938C72.3483 97.6784 72.6315 97.7467 72.957 97.7988C73.2826 97.8444 73.6016 97.8672 73.9141 97.8672C75.1315 97.8672 76.0885 97.6068 76.7852 97.0859C77.4818 96.5586 77.9831 95.8457 78.2891 94.9473C78.5951 94.0423 78.7676 93.0267 78.8066 91.9004H78.6895C78.4941 92.2129 78.237 92.5026 77.918 92.7695C77.6055 93.0299 77.2246 93.2415 76.7754 93.4043C76.3262 93.5605 75.8021 93.6387 75.2031 93.6387C74.3763 93.6387 73.6536 93.4694 73.0352 93.1309C72.4232 92.7923 71.9447 92.3008 71.5996 91.6562C71.2611 91.0117 71.0918 90.2337 71.0918 89.3223C71.0918 88.3392 71.2773 87.4896 71.6484 86.7734C72.026 86.0508 72.5534 85.4941 73.2305 85.1035C73.9076 84.7129 74.7051 84.5176 75.623 84.5176C76.3262 84.5176 76.9707 84.651 77.5566 84.918C78.1426 85.1849 78.6504 85.5853 79.0801 86.1191C79.5163 86.6465 79.8516 87.3008 80.0859 88.082C80.3268 88.8633 80.4473 89.7715 80.4473 90.8066ZM75.623 85.8945C74.7572 85.8945 74.054 86.1777 73.5137 86.7441C72.9798 87.3105 72.7129 88.1634 72.7129 89.3027C72.7129 90.2467 72.944 90.9922 73.4062 91.5391C73.8685 92.0859 74.5814 92.3594 75.5449 92.3594C76.209 92.3594 76.7819 92.2259 77.2637 91.959C77.752 91.6921 78.1263 91.3535 78.3867 90.9434C78.6536 90.5332 78.7871 90.1133 78.7871 89.6836C78.7871 89.2539 78.722 88.8177 78.5918 88.375C78.4681 87.9323 78.276 87.5254 78.0156 87.1543C77.7552 86.7767 77.4264 86.474 77.0293 86.2461C76.6322 86.0117 76.1634 85.8945 75.623 85.8945ZM91.8926 90.8066C91.8926 91.6725 91.8307 92.5156 91.707 93.3359C91.5898 94.1562 91.3848 94.9212 91.0918 95.6309C90.8053 96.3405 90.4147 96.9622 89.9199 97.4961C89.4251 98.0299 88.8034 98.4499 88.0547 98.7559C87.3125 99.0553 86.4238 99.2051 85.3887 99.2051C85.1087 99.2051 84.7897 99.1855 84.4316 99.1465C84.0736 99.1139 83.7806 99.0651 83.5527 99V97.5938C83.7936 97.6784 84.0768 97.7467 84.4023 97.7988C84.7279 97.8444 85.0469 97.8672 85.3594 97.8672C86.5768 97.8672 87.5339 97.6068 88.2305 97.0859C88.9271 96.5586 89.4284 95.8457 89.7344 94.9473C90.0404 94.0423 90.2129 93.0267 90.252 91.9004H90.1348C89.9395 92.2129 89.6823 92.5026 89.3633 92.7695C89.0508 93.0299 88.6699 93.2415 88.2207 93.4043C87.7715 93.5605 87.2474 93.6387 86.6484 93.6387C85.8216 93.6387 85.099 93.4694 84.4805 93.1309C83.8685 92.7923 83.39 92.3008 83.0449 91.6562C82.7064 91.0117 82.5371 90.2337 82.5371 89.3223C82.5371 88.3392 82.7227 87.4896 83.0938 86.7734C83.4714 86.0508 83.9987 85.4941 84.6758 85.1035C85.3529 84.7129 86.1504 84.5176 87.0684 84.5176C87.7715 84.5176 88.416 84.651 89.002 84.918C89.5879 85.1849 90.0957 85.5853 90.5254 86.1191C90.9616 86.6465 91.2969 87.3008 91.5312 88.082C91.7721 88.8633 91.8926 89.7715 91.8926 90.8066ZM87.0684 85.8945C86.2025 85.8945 85.4993 86.1777 84.959 86.7441C84.4251 87.3105 84.1582 88.1634 84.1582 89.3027C84.1582 90.2467 84.3893 90.9922 84.8516 91.5391C85.3138 92.0859 86.0267 92.3594 86.9902 92.3594C87.6543 92.3594 88.2272 92.2259 88.709 91.959C89.1973 91.6921 89.5716 91.3535 89.832 90.9434C90.099 90.5332 90.2324 90.1133 90.2324 89.6836C90.2324 89.2539 90.1673 88.8177 90.0371 88.375C89.9134 87.9323 89.7214 87.5254 89.4609 87.1543C89.2005 86.7767 88.8717 86.474 88.4746 86.2461C88.0775 86.0117 87.6087 85.8945 87.0684 85.8945ZM103.338 90.8066C103.338 91.6725 103.276 92.5156 103.152 93.3359C103.035 94.1562 102.83 94.9212 102.537 95.6309C102.251 96.3405 101.86 96.9622 101.365 97.4961C100.87 98.0299 100.249 98.4499 99.5 98.7559C98.7578 99.0553 97.8691 99.2051 96.834 99.2051C96.554 99.2051 96.235 99.1855 95.877 99.1465C95.5189 99.1139 95.2259 99.0651 94.998 99V97.5938C95.2389 97.6784 95.5221 97.7467 95.8477 97.7988C96.1732 97.8444 96.4922 97.8672 96.8047 97.8672C98.0221 97.8672 98.9792 97.6068 99.6758 97.0859C100.372 96.5586 100.874 95.8457 101.18 94.9473C101.486 94.0423 101.658 93.0267 101.697 91.9004H101.58C101.385 92.2129 101.128 92.5026 100.809 92.7695C100.496 93.0299 100.115 93.2415 99.666 93.4043C99.2168 93.5605 98.6927 93.6387 98.0938 93.6387C97.2669 93.6387 96.5443 93.4694 95.9258 93.1309C95.3138 92.7923 94.8353 92.3008 94.4902 91.6562C94.1517 91.0117 93.9824 90.2337 93.9824 89.3223C93.9824 88.3392 94.168 87.4896 94.5391 86.7734C94.9167 86.0508 95.444 85.4941 96.1211 85.1035C96.7982 84.7129 97.5957 84.5176 98.5137 84.5176C99.2168 84.5176 99.8613 84.651 100.447 84.918C101.033 85.1849 101.541 85.5853 101.971 86.1191C102.407 86.6465 102.742 87.3008 102.977 88.082C103.217 88.8633 103.338 89.7715 103.338 90.8066ZM98.5137 85.8945C97.6478 85.8945 96.9447 86.1777 96.4043 86.7441C95.8704 87.3105 95.6035 88.1634 95.6035 89.3027C95.6035 90.2467 95.8346 90.9922 96.2969 91.5391C96.7591 92.0859 97.472 92.3594 98.4355 92.3594C99.0996 92.3594 99.6725 92.2259 100.154 91.959C100.643 91.6921 101.017 91.3535 101.277 90.9434C101.544 90.5332 101.678 90.1133 101.678 89.6836C101.678 89.2539 101.613 88.8177 101.482 88.375C101.359 87.9323 101.167 87.5254 100.906 87.1543C100.646 86.7767 100.317 86.474 99.9199 86.2461C99.5228 86.0117 99.054 85.8945 98.5137 85.8945ZM116.639 99H115.057V88.8828C115.057 88.4987 115.057 88.1699 115.057 87.8965C115.063 87.6165 115.07 87.3626 115.076 87.1348C115.089 86.9004 115.105 86.6628 115.125 86.4219C114.923 86.6302 114.734 86.8092 114.559 86.959C114.383 87.1022 114.165 87.2812 113.904 87.4961L112.273 88.8047L111.424 87.7012L115.291 84.7227H116.639V99ZM131.404 99H122.049V97.6426L125.867 93.7656C126.577 93.0495 127.173 92.4115 127.654 91.8516C128.143 91.2917 128.514 90.7415 128.768 90.2012C129.021 89.6543 129.148 89.0553 129.148 88.4043C129.148 87.597 128.908 86.9818 128.426 86.5586C127.951 86.1289 127.322 85.9141 126.541 85.9141C125.857 85.9141 125.252 86.0312 124.725 86.2656C124.197 86.5 123.657 86.832 123.104 87.2617L122.234 86.168C122.612 85.849 123.022 85.5658 123.465 85.3184C123.914 85.071 124.393 84.8757 124.9 84.7324C125.415 84.5892 125.962 84.5176 126.541 84.5176C127.42 84.5176 128.178 84.6706 128.816 84.9766C129.454 85.2826 129.946 85.7188 130.291 86.2852C130.643 86.8516 130.818 87.5254 130.818 88.3066C130.818 89.0618 130.669 89.765 130.369 90.416C130.07 91.0605 129.65 91.7018 129.109 92.3398C128.569 92.9714 127.938 93.6419 127.215 94.3516L124.109 97.4473V97.5156H131.404V99ZM142.322 88.0527C142.322 88.6908 142.199 89.2441 141.951 89.7129C141.704 90.1816 141.359 90.5658 140.916 90.8652C140.473 91.1582 139.952 91.3633 139.354 91.4805V91.5586C140.486 91.7018 141.336 92.0664 141.902 92.6523C142.475 93.2383 142.762 94.0065 142.762 94.957C142.762 95.7839 142.566 96.5163 142.176 97.1543C141.792 97.7923 141.199 98.2936 140.398 98.6582C139.604 99.0163 138.585 99.1953 137.342 99.1953C136.587 99.1953 135.887 99.1335 135.242 99.0098C134.604 98.8926 133.992 98.694 133.406 98.4141V96.8906C133.999 97.1836 134.643 97.4147 135.34 97.584C136.036 97.7467 136.71 97.8281 137.361 97.8281C138.663 97.8281 139.604 97.571 140.184 97.0566C140.763 96.5358 141.053 95.8262 141.053 94.9277C141.053 94.3092 140.89 93.8112 140.564 93.4336C140.245 93.0495 139.783 92.7695 139.178 92.5938C138.579 92.4115 137.856 92.3203 137.01 92.3203H135.584V90.9336H137.02C137.794 90.9336 138.452 90.8197 138.992 90.5918C139.533 90.3639 139.943 90.0449 140.223 89.6348C140.509 89.2181 140.652 88.7266 140.652 88.1602C140.652 87.4375 140.411 86.8809 139.93 86.4902C139.448 86.0931 138.794 85.8945 137.967 85.8945C137.459 85.8945 136.997 85.9466 136.58 86.0508C136.163 86.1549 135.773 86.2982 135.408 86.4805C135.044 86.6628 134.679 86.8743 134.314 87.1152L133.494 86.002C134.015 85.5983 134.65 85.25 135.398 84.957C136.147 84.6641 136.997 84.5176 137.947 84.5176C139.406 84.5176 140.499 84.8496 141.229 85.5137C141.958 86.1777 142.322 87.0241 142.322 88.0527ZM144.754 94.3516V92.9062H149.598V94.3516H144.754ZM161.453 95.6895H159.314V99H157.732V95.6895H150.828V94.3223L157.625 84.6445H159.314V94.2246H161.453V95.6895ZM157.732 94.2246V89.5566C157.732 89.1986 157.736 88.8763 157.742 88.5898C157.749 88.2969 157.758 88.0267 157.771 87.7793C157.785 87.5254 157.794 87.2845 157.801 87.0566C157.814 86.8288 157.824 86.6042 157.83 86.3828H157.752C157.628 86.6432 157.485 86.9199 157.322 87.2129C157.166 87.4993 157.007 87.7565 156.844 87.9844L152.439 94.2246H157.732ZM167.342 90.2695C168.312 90.2695 169.155 90.4355 169.871 90.7676C170.587 91.0931 171.141 91.5684 171.531 92.1934C171.928 92.8184 172.127 93.5768 172.127 94.4688C172.127 95.4453 171.915 96.2884 171.492 96.998C171.069 97.7012 170.46 98.2448 169.666 98.6289C168.872 99.0065 167.921 99.1953 166.814 99.1953C166.072 99.1953 165.382 99.1302 164.744 99C164.106 98.8698 163.569 98.6745 163.133 98.4141V96.8711C163.608 97.1576 164.184 97.3854 164.861 97.5547C165.538 97.724 166.196 97.8086 166.834 97.8086C167.557 97.8086 168.188 97.6947 168.729 97.4668C169.275 97.2324 169.699 96.8809 169.998 96.4121C170.304 95.9368 170.457 95.3411 170.457 94.625C170.457 93.6745 170.164 92.9421 169.578 92.4277C168.999 91.9069 168.081 91.6465 166.824 91.6465C166.421 91.6465 165.978 91.679 165.496 91.7441C165.014 91.8092 164.617 91.8809 164.305 91.959L163.484 91.4219L164.031 84.7227H171.131V86.207H165.418L165.057 90.5137C165.304 90.4616 165.623 90.4095 166.014 90.3574C166.404 90.2988 166.847 90.2695 167.342 90.2695ZM174.09 94.3516V92.9062H178.934V94.3516H174.09ZM180.867 92.8965C180.867 92.0371 180.926 91.1973 181.043 90.377C181.167 89.5566 181.372 88.7949 181.658 88.0918C181.945 87.3822 182.335 86.7604 182.83 86.2266C183.325 85.6927 183.94 85.276 184.676 84.9766C185.418 84.6706 186.307 84.5176 187.342 84.5176C187.635 84.5176 187.951 84.5339 188.289 84.5664C188.628 84.5924 188.908 84.638 189.129 84.7031V86.0996C188.888 86.015 188.611 85.9531 188.299 85.9141C187.993 85.875 187.684 85.8555 187.371 85.8555C186.16 85.8555 185.206 86.1191 184.51 86.6465C183.82 87.1738 183.322 87.89 183.016 88.7949C182.71 89.6934 182.534 90.7057 182.488 91.832H182.596C182.798 91.5065 183.055 91.2135 183.367 90.9531C183.68 90.6862 184.057 90.4746 184.5 90.3184C184.949 90.1621 185.47 90.084 186.062 90.084C186.896 90.084 187.622 90.2533 188.24 90.5918C188.865 90.9303 189.347 91.4219 189.686 92.0664C190.031 92.7109 190.203 93.4922 190.203 94.4102C190.203 95.3932 190.021 96.2428 189.656 96.959C189.292 97.6751 188.771 98.2285 188.094 98.6191C187.423 99.0033 186.622 99.1953 185.691 99.1953C184.995 99.1953 184.354 99.0618 183.768 98.7949C183.182 98.528 182.671 98.1309 182.234 97.6035C181.805 97.0762 181.469 96.4219 181.229 95.6406C180.988 94.8529 180.867 93.9382 180.867 92.8965ZM185.672 97.8281C186.557 97.8281 187.267 97.5449 187.801 96.9785C188.335 96.4121 188.602 95.556 188.602 94.4102C188.602 93.4727 188.364 92.7305 187.889 92.1836C187.413 91.6367 186.697 91.3633 185.74 91.3633C185.089 91.3633 184.523 91.5 184.041 91.7734C183.559 92.0404 183.185 92.3789 182.918 92.7891C182.651 93.1992 182.518 93.6159 182.518 94.0391C182.518 94.4688 182.579 94.9049 182.703 95.3477C182.833 95.7904 183.029 96.2005 183.289 96.5781C183.549 96.9557 183.878 97.2585 184.275 97.4863C184.673 97.7142 185.138 97.8281 185.672 97.8281ZM194.012 99L199.871 86.207H192.088V84.7227H201.609V85.9727L195.789 99H194.012Z" fill="#212121"/>
<path d="M270.363 80.4531H245.637C244.186 80.4531 243 81.6337 243 83.0898V98.9102C243 100.367 244.187 101.547 245.637 101.547H270.363C271.814 101.547 273 100.366 273 98.9102V83.0898C273 81.6334 271.814 80.4531 270.363 80.4531ZM269.958 82.2109L258.681 93.525C258.337 93.8697 257.663 93.8699 257.319 93.525L246.042 82.2109H269.958ZM244.758 98.587V83.413L252.32 91L244.758 98.587ZM246.042 99.7891L253.561 92.245L256.074 94.766C257.104 95.7991 258.897 95.7987 259.926 94.766L262.439 92.2451L269.958 99.7891H246.042ZM271.242 98.587L263.68 91L271.242 83.413V98.587Z" fill="#212121"/>
<path d="M290.83 88.1016C291.742 88.1016 292.523 88.3034 293.174 88.707C293.825 89.1107 294.323 89.6771 294.668 90.4062C295.013 91.1289 295.186 91.9753 295.186 92.9453V93.9512H287.793C287.812 95.2077 288.125 96.1647 288.73 96.8223C289.336 97.4798 290.189 97.8086 291.289 97.8086C291.966 97.8086 292.565 97.7467 293.086 97.623C293.607 97.4993 294.147 97.3171 294.707 97.0762V98.502C294.167 98.7428 293.63 98.9186 293.096 99.0293C292.568 99.14 291.943 99.1953 291.221 99.1953C290.192 99.1953 289.294 98.987 288.525 98.5703C287.764 98.1471 287.171 97.5286 286.748 96.7148C286.325 95.901 286.113 94.9049 286.113 93.7266C286.113 92.5742 286.305 91.5781 286.689 90.7383C287.08 89.8919 287.627 89.2409 288.33 88.7852C289.04 88.3294 289.873 88.1016 290.83 88.1016ZM290.811 89.4297C289.945 89.4297 289.255 89.7129 288.74 90.2793C288.226 90.8457 287.92 91.6367 287.822 92.6523H293.486C293.48 92.0143 293.379 91.4544 293.184 90.9727C292.995 90.4844 292.705 90.1068 292.314 89.8398C291.924 89.5664 291.423 89.4297 290.811 89.4297ZM309.561 88.1016C310.739 88.1016 311.628 88.4108 312.227 89.0293C312.826 89.6413 313.125 90.6276 313.125 91.9883V99H311.523V92.0664C311.523 91.2005 311.335 90.5527 310.957 90.123C310.586 89.6868 310.033 89.4688 309.297 89.4688C308.262 89.4688 307.51 89.7682 307.041 90.3672C306.572 90.9661 306.338 91.8483 306.338 93.0137V99H304.727V92.0664C304.727 91.487 304.642 91.0052 304.473 90.6211C304.31 90.237 304.062 89.9505 303.73 89.7617C303.405 89.5664 302.992 89.4688 302.49 89.4688C301.781 89.4688 301.211 89.6152 300.781 89.9082C300.352 90.2012 300.039 90.6374 299.844 91.2168C299.655 91.7897 299.561 92.4961 299.561 93.3359V99H297.939V88.2969H299.248L299.492 89.8105H299.58C299.795 89.4395 300.065 89.127 300.391 88.873C300.716 88.6191 301.081 88.4271 301.484 88.2969C301.888 88.1667 302.318 88.1016 302.773 88.1016C303.587 88.1016 304.268 88.2546 304.814 88.5605C305.368 88.86 305.768 89.319 306.016 89.9375H306.104C306.455 89.319 306.937 88.86 307.549 88.5605C308.161 88.2546 308.831 88.1016 309.561 88.1016ZM320.459 88.1211C321.735 88.1211 322.682 88.4076 323.301 88.9805C323.919 89.5534 324.229 90.4681 324.229 91.7246V99H323.047L322.734 97.418H322.656C322.357 97.8086 322.044 98.1374 321.719 98.4043C321.393 98.6647 321.016 98.8633 320.586 99C320.163 99.1302 319.642 99.1953 319.023 99.1953C318.372 99.1953 317.793 99.0814 317.285 98.8535C316.784 98.6257 316.387 98.2806 316.094 97.8184C315.807 97.3561 315.664 96.7702 315.664 96.0605C315.664 94.9928 316.087 94.1725 316.934 93.5996C317.78 93.0267 319.069 92.7142 320.801 92.6621L322.646 92.584V91.9297C322.646 91.0052 322.448 90.3574 322.051 89.9863C321.654 89.6152 321.094 89.4297 320.371 89.4297C319.811 89.4297 319.277 89.5111 318.77 89.6738C318.262 89.8366 317.78 90.0286 317.324 90.25L316.826 89.0195C317.308 88.7721 317.861 88.5605 318.486 88.3848C319.111 88.209 319.769 88.1211 320.459 88.1211ZM322.627 93.7266L320.996 93.7949C319.661 93.847 318.721 94.0651 318.174 94.4492C317.627 94.8333 317.354 95.377 317.354 96.0801C317.354 96.6921 317.539 97.1445 317.91 97.4375C318.281 97.7305 318.773 97.877 319.385 97.877C320.335 97.877 321.113 97.6133 321.719 97.0859C322.324 96.5586 322.627 95.7676 322.627 94.7129V93.7266ZM329.189 88.2969V99H327.568V88.2969H329.189ZM328.398 84.293C328.665 84.293 328.893 84.3809 329.082 84.5566C329.277 84.7259 329.375 84.9928 329.375 85.3574C329.375 85.7155 329.277 85.9824 329.082 86.1582C328.893 86.334 328.665 86.4219 328.398 86.4219C328.118 86.4219 327.884 86.334 327.695 86.1582C327.513 85.9824 327.422 85.7155 327.422 85.3574C327.422 84.9928 327.513 84.7259 327.695 84.5566C327.884 84.3809 328.118 84.293 328.398 84.293ZM334.258 99H332.627V83.8047H334.258V99ZM352.764 91.8711C352.764 92.4896 352.692 93.0951 352.549 93.6875C352.412 94.2734 352.201 94.804 351.914 95.2793C351.628 95.748 351.27 96.1224 350.84 96.4023C350.417 96.6823 349.915 96.8223 349.336 96.8223C348.73 96.8223 348.249 96.6465 347.891 96.2949C347.533 95.9434 347.318 95.5267 347.246 95.0449H347.158C346.911 95.5592 346.546 95.9857 346.064 96.3242C345.589 96.6562 345.003 96.8223 344.307 96.8223C343.291 96.8223 342.507 96.487 341.953 95.8164C341.406 95.1393 341.133 94.2409 341.133 93.1211C341.133 92.2487 341.305 91.4772 341.65 90.8066C342.002 90.1296 342.493 89.599 343.125 89.2148C343.763 88.8242 344.515 88.6289 345.381 88.6289C345.96 88.6289 346.523 88.6777 347.07 88.7754C347.617 88.873 348.053 88.9805 348.379 89.0977L348.184 93.0332C348.177 93.2741 348.171 93.4596 348.164 93.5898C348.158 93.7135 348.154 93.8112 348.154 93.8828C348.154 94.5859 348.278 95.0612 348.525 95.3086C348.779 95.5495 349.085 95.6699 349.443 95.6699C349.88 95.6699 350.244 95.5007 350.537 95.1621C350.837 94.8171 351.064 94.3581 351.221 93.7852C351.377 93.2057 351.455 92.5645 351.455 91.8613C351.455 90.6178 351.204 89.5566 350.703 88.6777C350.202 87.7988 349.508 87.1283 348.623 86.666C347.744 86.2038 346.732 85.9727 345.586 85.9727C344.447 85.9727 343.434 86.1517 342.549 86.5098C341.67 86.8678 340.924 87.3757 340.312 88.0332C339.707 88.6842 339.248 89.459 338.936 90.3574C338.623 91.2559 338.467 92.2487 338.467 93.3359C338.467 94.6641 338.701 95.7936 339.17 96.7246C339.645 97.6556 340.339 98.3652 341.25 98.8535C342.168 99.3353 343.285 99.5762 344.6 99.5762C345.394 99.5762 346.159 99.4883 346.895 99.3125C347.63 99.1367 348.288 98.9382 348.867 98.7168V99.9863C348.294 100.227 347.653 100.423 346.943 100.572C346.234 100.729 345.452 100.807 344.6 100.807C343.031 100.807 341.689 100.51 340.576 99.918C339.463 99.332 338.61 98.4857 338.018 97.3789C337.425 96.2721 337.129 94.944 337.129 93.3945C337.129 92.138 337.321 90.9824 337.705 89.9277C338.096 88.873 338.656 87.9583 339.385 87.1836C340.12 86.4089 341.009 85.8099 342.051 85.3867C343.099 84.957 344.277 84.7422 345.586 84.7422C346.986 84.7422 348.223 85.0319 349.297 85.6113C350.378 86.1842 351.224 87.0046 351.836 88.0723C352.454 89.1335 352.764 90.3997 352.764 91.8711ZM342.588 93.1602C342.588 94.026 342.76 94.6608 343.105 95.0645C343.451 95.4681 343.929 95.6699 344.541 95.6699C345.296 95.6699 345.85 95.3867 346.201 94.8203C346.559 94.2539 346.764 93.5052 346.816 92.5742L346.934 90.0254C346.745 89.9668 346.514 89.918 346.24 89.8789C345.973 89.8333 345.693 89.8105 345.4 89.8105C344.73 89.8105 344.186 89.9701 343.77 90.2891C343.359 90.6081 343.06 91.0215 342.871 91.5293C342.682 92.0371 342.588 92.5807 342.588 93.1602ZM367.236 88.1016C368.415 88.1016 369.303 88.4108 369.902 89.0293C370.501 89.6413 370.801 90.6276 370.801 91.9883V99H369.199V92.0664C369.199 91.2005 369.01 90.5527 368.633 90.123C368.262 89.6868 367.708 89.4688 366.973 89.4688C365.938 89.4688 365.186 89.7682 364.717 90.3672C364.248 90.9661 364.014 91.8483 364.014 93.0137V99H362.402V92.0664C362.402 91.487 362.318 91.0052 362.148 90.6211C361.986 90.237 361.738 89.9505 361.406 89.7617C361.081 89.5664 360.667 89.4688 360.166 89.4688C359.456 89.4688 358.887 89.6152 358.457 89.9082C358.027 90.2012 357.715 90.6374 357.52 91.2168C357.331 91.7897 357.236 92.4961 357.236 93.3359V99H355.615V88.2969H356.924L357.168 89.8105H357.256C357.471 89.4395 357.741 89.127 358.066 88.873C358.392 88.6191 358.757 88.4271 359.16 88.2969C359.564 88.1667 359.993 88.1016 360.449 88.1016C361.263 88.1016 361.943 88.2546 362.49 88.5605C363.044 88.86 363.444 89.319 363.691 89.9375H363.779C364.131 89.319 364.613 88.86 365.225 88.5605C365.837 88.2546 366.507 88.1016 367.236 88.1016ZM378.135 88.1211C379.411 88.1211 380.358 88.4076 380.977 88.9805C381.595 89.5534 381.904 90.4681 381.904 91.7246V99H380.723L380.41 97.418H380.332C380.033 97.8086 379.72 98.1374 379.395 98.4043C379.069 98.6647 378.691 98.8633 378.262 99C377.839 99.1302 377.318 99.1953 376.699 99.1953C376.048 99.1953 375.469 99.0814 374.961 98.8535C374.46 98.6257 374.062 98.2806 373.77 97.8184C373.483 97.3561 373.34 96.7702 373.34 96.0605C373.34 94.9928 373.763 94.1725 374.609 93.5996C375.456 93.0267 376.745 92.7142 378.477 92.6621L380.322 92.584V91.9297C380.322 91.0052 380.124 90.3574 379.727 89.9863C379.329 89.6152 378.77 89.4297 378.047 89.4297C377.487 89.4297 376.953 89.5111 376.445 89.6738C375.938 89.8366 375.456 90.0286 375 90.25L374.502 89.0195C374.984 88.7721 375.537 88.5605 376.162 88.3848C376.787 88.209 377.445 88.1211 378.135 88.1211ZM380.303 93.7266L378.672 93.7949C377.337 93.847 376.396 94.0651 375.85 94.4492C375.303 94.8333 375.029 95.377 375.029 96.0801C375.029 96.6921 375.215 97.1445 375.586 97.4375C375.957 97.7305 376.449 97.877 377.061 97.877C378.011 97.877 378.789 97.6133 379.395 97.0859C380 96.5586 380.303 95.7676 380.303 94.7129V93.7266ZM386.865 88.2969V99H385.244V88.2969H386.865ZM386.074 84.293C386.341 84.293 386.569 84.3809 386.758 84.5566C386.953 84.7259 387.051 84.9928 387.051 85.3574C387.051 85.7155 386.953 85.9824 386.758 86.1582C386.569 86.334 386.341 86.4219 386.074 86.4219C385.794 86.4219 385.56 86.334 385.371 86.1582C385.189 85.9824 385.098 85.7155 385.098 85.3574C385.098 84.9928 385.189 84.7259 385.371 84.5566C385.56 84.3809 385.794 84.293 386.074 84.293ZM391.934 99H390.303V83.8047H391.934V99ZM395.117 97.9844C395.117 97.5286 395.228 97.2064 395.449 97.0176C395.671 96.8223 395.941 96.7246 396.26 96.7246C396.592 96.7246 396.872 96.8223 397.1 97.0176C397.327 97.2064 397.441 97.5286 397.441 97.9844C397.441 98.4336 397.327 98.7624 397.1 98.9707C396.872 99.1725 396.592 99.2734 396.26 99.2734C395.941 99.2734 395.671 99.1725 395.449 98.9707C395.228 98.7624 395.117 98.4336 395.117 97.9844ZM405.479 88.1016C405.693 88.1016 405.918 88.1146 406.152 88.1406C406.387 88.1602 406.595 88.1895 406.777 88.2285L406.572 89.7324C406.396 89.6868 406.201 89.651 405.986 89.625C405.771 89.599 405.57 89.5859 405.381 89.5859C404.951 89.5859 404.544 89.6738 404.16 89.8496C403.783 90.0189 403.451 90.2663 403.164 90.5918C402.878 90.9108 402.653 91.2982 402.49 91.7539C402.327 92.2031 402.246 92.7044 402.246 93.2578V99H400.615V88.2969H401.963L402.139 90.2695H402.207C402.428 89.8724 402.695 89.5111 403.008 89.1855C403.32 88.8535 403.682 88.5898 404.092 88.3945C404.508 88.1992 404.971 88.1016 405.479 88.1016ZM417.637 88.2969V99H416.309L416.074 97.4961H415.986C415.765 97.8672 415.479 98.1797 415.127 98.4336C414.775 98.6875 414.378 98.8763 413.936 99C413.499 99.1302 413.034 99.1953 412.539 99.1953C411.693 99.1953 410.983 99.0586 410.41 98.7852C409.837 98.5117 409.404 98.0885 409.111 97.5156C408.825 96.9427 408.682 96.207 408.682 95.3086V88.2969H410.322V95.1914C410.322 96.0833 410.524 96.7507 410.928 97.1934C411.331 97.6296 411.947 97.8477 412.773 97.8477C413.568 97.8477 414.199 97.6979 414.668 97.3984C415.143 97.099 415.485 96.6595 415.693 96.0801C415.902 95.4941 416.006 94.778 416.006 93.9316V88.2969H417.637Z" fill="#212121"/>
<rect x="0.5" y="146.5" width="49" height="49" rx="24.5" stroke="#09A494"/>
<path d="M24.5 159C17.6075 159 12 164.608 12 171.5C12 178.392 17.6075 184 24.5 184C31.3925 184 37 178.392 37 171.5C37 164.608 31.3925 159 24.5 159ZM24.5 160.875C30.3791 160.875 35.125 165.621 35.125 171.5C35.125 176.291 31.9731 180.327 27.625 181.657V178.46C27.625 177.267 26.9371 176.243 25.9429 175.733C26.9096 175.548 27.8072 175.182 28.5612 174.664C29.3153 174.146 29.904 173.491 30.2785 172.755C30.6531 172.018 30.8026 171.221 30.7148 170.429C30.6269 169.637 30.3042 168.873 29.7734 168.2C30.0507 167.347 30.3603 165.85 29.6245 164.673C28.2058 164.673 27.2904 165.645 26.8535 166.25C26.1066 166.004 25.3074 165.877 24.5 165.875C23.6921 165.876 22.892 166.002 22.144 166.246C21.7061 165.641 20.7914 164.673 19.3755 164.673C18.5311 166.024 19.0531 167.478 19.3328 168.071C18.7661 168.74 18.4108 169.51 18.2973 170.313C18.1837 171.116 18.3154 171.93 18.681 172.683C19.0465 173.437 19.6351 174.109 20.3962 174.641C21.1573 175.172 22.0683 175.549 23.051 175.737C22.2347 176.158 21.6233 176.921 21.436 177.848H20.6145C19.8039 177.848 19.4889 177.518 19.0508 176.963C18.6183 176.407 18.1532 176.034 17.5945 175.879C17.2932 175.847 17.0903 176.076 17.3528 176.279C18.2397 176.883 18.3009 177.871 18.6565 178.518C18.9802 179.1 19.6436 179.625 20.3936 179.625H21.375V181.657C17.0269 180.327 13.875 176.291 13.875 171.5C13.875 165.621 18.6209 160.875 24.5 160.875Z" fill="black"/>
<rect x="70.5" y="146.5" width="49" height="49" rx="24.5" stroke="#09A494"/>
<path d="M102.578 159C102.328 158.998 102.105 159.156 102.027 159.395L99.1855 168.143H91.1007L88.2592 159.395C88.1833 159.165 87.9713 159.007 87.728 159C87.4847 158.996 87.2659 159.143 87.1788 159.371L83.7548 168.509C83.7525 168.509 83.7525 168.511 83.7503 168.513L82.036 173.085C81.9467 173.326 82.0271 173.596 82.2369 173.748L94.8038 182.886L94.806 182.891C94.8083 182.891 94.8083 182.891 94.8083 182.893C94.815 182.897 94.8239 182.902 94.8306 182.906C94.8395 182.911 94.8462 182.917 94.8552 182.922C94.8574 182.922 94.8574 182.924 94.8596 182.924C94.8596 182.924 94.8619 182.926 94.8641 182.926C94.8663 182.929 94.8685 182.931 94.873 182.931C94.8752 182.933 94.8797 182.935 94.8819 182.938C94.8931 182.942 94.9065 182.949 94.9199 182.953C94.9199 182.953 94.9199 182.953 94.9199 182.955C94.9333 182.96 94.9467 182.964 94.9578 182.969C94.9601 182.969 94.9601 182.969 94.9623 182.971C94.9712 182.973 94.9802 182.975 94.9913 182.98C94.9958 182.98 95.0002 182.982 95.0069 182.982C95.0069 182.984 95.0069 182.984 95.0069 182.982C95.0181 182.987 95.0293 182.989 95.0404 182.991C95.056 182.993 95.0694 182.996 95.0851 182.998C95.1074 182.998 95.1319 183 95.1543 183C95.1766 182.998 95.1967 182.998 95.2168 182.993C95.2257 182.993 95.2324 182.993 95.2413 182.991C95.2413 182.991 95.2435 182.991 95.2458 182.991C95.2502 182.989 95.2525 182.989 95.2569 182.989C95.2592 182.989 95.2614 182.987 95.2659 182.987C95.2703 182.984 95.277 182.984 95.2815 182.982C95.2904 182.98 95.2971 182.978 95.3038 182.975C95.3083 182.975 95.3105 182.975 95.3127 182.973C95.315 182.973 95.3172 182.973 95.3194 182.973C95.3284 182.969 95.3395 182.964 95.3485 182.962C95.3596 182.958 95.3685 182.953 95.3775 182.949C95.3797 182.949 95.3797 182.949 95.3819 182.946C95.3842 182.946 95.3864 182.946 95.3886 182.944C95.3931 182.942 95.3976 182.94 95.402 182.938C95.4154 182.931 95.4266 182.924 95.4377 182.917C95.4422 182.915 95.4444 182.913 95.4467 182.911C95.4489 182.911 95.4511 182.908 95.4534 182.908C95.4623 182.902 95.4712 182.897 95.4802 182.891L95.4846 182.884L108.052 173.748C108.259 173.596 108.339 173.326 108.25 173.085L106.54 168.529C106.538 168.525 106.536 168.518 106.536 168.513L103.107 159.371C103.023 159.15 102.815 159.002 102.578 159ZM85.4668 169.286H90.2704L93.6163 179.58L85.4668 169.286ZM100.016 169.286H104.819L96.6699 179.58L100.016 169.286ZM84.4646 169.862L92.1074 179.516L83.2592 173.08L84.4646 169.862ZM105.822 169.862L107.027 173.08L98.1788 179.516L105.822 169.862Z" fill="black"/>
<rect x="140.5" y="146.5" width="49" height="49" rx="24.5" stroke="#09A494"/>
<path d="M159.676 160C155.999 160 153 162.999 153 166.676V176.324C153 180.001 155.999 183 159.676 183H169.324C173.001 183 176 180.001 176 176.324V166.676C176 162.999 173.001 160 169.324 160H159.676ZM159.676 161.769H169.324C172.043 161.769 174.231 163.953 174.231 166.676V176.324C174.231 179.043 172.047 181.231 169.324 181.231H159.676C156.957 181.231 154.769 179.047 154.769 176.324V166.676C154.769 163.957 156.953 161.769 159.676 161.769ZM171.135 163.538C170.402 163.538 169.808 164.133 169.808 164.865C169.808 165.598 170.402 166.192 171.135 166.192C171.867 166.192 172.462 165.598 172.462 164.865C172.462 164.133 171.867 163.538 171.135 163.538ZM164.5 165.308C161.089 165.308 158.308 168.089 158.308 171.5C158.308 174.911 161.089 177.692 164.5 177.692C167.911 177.692 170.692 174.911 170.692 171.5C170.692 168.089 167.911 165.308 164.5 165.308ZM164.5 167.077C166.953 167.077 168.923 169.047 168.923 171.5C168.923 173.953 166.953 175.923 164.5 175.923C162.047 175.923 160.077 173.953 160.077 171.5C160.077 169.047 162.047 167.077 164.5 167.077Z" fill="black"/>
<rect x="210.5" y="146.5" width="49" height="49" rx="24.5" stroke="#09A494"/>
<path d="M244.154 159.984C243.829 159.999 243.526 160.093 243.26 160.201C243.01 160.302 242.056 160.711 240.553 161.356C239.048 162.001 237.056 162.856 234.932 163.77C230.682 165.597 225.904 167.654 223.457 168.707C223.365 168.747 223.044 168.849 222.703 169.115C222.362 169.381 222 169.933 222 170.547C222 171.042 222.236 171.534 222.533 171.828C222.83 172.122 223.145 172.267 223.414 172.377C224.391 172.776 227.422 174.016 227.994 174.25C228.196 174.867 229.292 178.223 229.547 179.045C229.715 179.588 229.874 179.928 230.082 180.197C230.186 180.332 230.307 180.45 230.453 180.543C230.512 180.58 230.576 180.609 230.641 180.635L230.645 180.637C230.659 180.643 230.672 180.653 230.688 180.658C230.716 180.668 230.735 180.669 230.773 180.678C230.926 180.727 231.08 180.758 231.217 180.758C231.802 180.758 232.16 180.436 232.16 180.436L232.182 180.42L235.191 177.816L238.842 181.27C238.893 181.342 239.373 182 240.43 182C241.057 182 241.555 181.685 241.875 181.35C242.195 181.014 242.394 180.662 242.479 180.219V180.217C242.558 179.798 245.922 162.527 245.922 162.527L245.916 162.551C246.014 162.101 246.04 161.683 245.932 161.27C245.823 160.856 245.537 160.461 245.182 160.248C244.827 160.035 244.479 159.97 244.154 159.984ZM243.967 162.074C243.962 162.103 243.97 162.089 243.963 162.123L243.961 162.135L243.959 162.147C243.959 162.147 240.636 179.196 240.514 179.846C240.523 179.797 240.482 179.894 240.439 179.953C240.38 179.912 240.258 179.859 240.258 179.859L240.238 179.838L235.252 175.121L231.727 178.168L232.775 173.969C232.775 173.969 239.332 167.182 239.727 166.787C240.045 166.471 240.111 166.361 240.111 166.252C240.111 166.106 240.035 166 239.865 166C239.712 166 239.506 166.149 239.396 166.219C237.963 167.132 231.672 170.799 228.852 172.44C228.403 172.256 225.29 170.982 224.234 170.551C224.242 170.547 224.24 170.549 224.248 170.545C226.696 169.492 231.472 167.435 235.721 165.607C237.845 164.694 239.839 163.838 241.342 163.193C242.822 162.559 243.85 162.122 243.967 162.074Z" fill="#212121"/>
<rect x="280.5" y="146.5" width="49" height="49" rx="24.5" stroke="#09A494"/>
<g clip-path="url(#clip1_1_108)">
<path d="M304.429 161.662C302.876 161.647 301.704 161.72 300.723 162.226C300.32 162.431 300.034 162.694 299.814 163.002C299.697 163.156 299.587 163.295 299.536 163.617C299.507 163.771 299.485 164.027 299.646 164.306C299.807 164.591 300.151 164.782 300.386 164.818C300.562 164.84 300.935 164.994 301.001 165.082C301.155 165.302 301.213 165.463 301.235 165.551C301.257 165.639 301.25 165.58 301.25 165.58V165.668C301.25 165.668 301.309 166.591 301.272 167.543C301.25 168.012 301.206 168.502 301.133 168.832C301.06 169.162 300.876 169.242 301.14 169.088C300.957 169.198 301.023 169.242 300.796 169.125C300.562 169.015 299.954 168.502 299.155 167.067C298.357 165.624 297.778 164.877 297.646 164.716C297.595 164.569 297.471 164.269 297.046 163.939C296.497 163.515 295.933 163.507 295.933 163.507L295.881 163.5H291.787C291.787 163.5 291.553 163.507 291.282 163.566C291.011 163.624 290.623 163.69 290.256 164.144H290.249C289.875 164.621 289.941 165.053 289.971 165.316C290.007 165.587 290.088 165.8 290.088 165.8L290.103 165.844L290.125 165.888C290.125 165.888 293.252 172.56 296.987 176.625C300.496 180.448 304.561 180.375 304.561 180.375H306.868L306.919 180.368C306.919 180.368 307.659 180.404 308.281 179.708C308.596 179.35 308.669 179.013 308.706 178.764C308.75 178.507 308.75 178.302 308.75 178.302V178.361C308.75 178.361 308.779 177.877 308.911 177.372C308.977 177.123 309.072 176.874 309.16 176.735C309.204 176.654 309.204 176.676 309.219 176.654C309.38 176.771 309.644 177.042 309.922 177.387C310.493 178.068 311.138 179.013 312.039 179.665C312.69 180.126 313.306 180.331 313.774 180.404C314.089 180.456 314.316 180.448 314.47 180.434L317.656 180.375H317.686C317.686 180.375 318.345 180.36 319.004 179.943C319.326 179.738 319.7 179.364 319.824 178.83C319.956 178.295 319.81 177.716 319.502 177.182C319.604 177.365 319.48 177.123 319.385 176.933C319.29 176.742 319.143 176.486 318.923 176.164C318.499 175.534 317.795 174.647 316.631 173.519C316.082 172.992 315.73 172.699 315.51 172.494C315.576 172.399 315.583 172.392 315.833 172.099C316.228 171.637 316.807 170.956 317.539 169.938C318.418 168.707 319.055 167.704 319.465 166.869C319.875 166.041 320.205 165.353 319.839 164.503C319.641 164.042 319.29 163.866 319.033 163.756C318.77 163.646 318.535 163.602 318.315 163.566C317.883 163.5 317.502 163.5 317.502 163.5L313.789 163.529C313.679 163.507 313.254 163.427 312.705 163.778C312.163 164.115 312.039 164.474 312.009 164.584C311.921 164.708 311.306 165.58 310.449 167.103C309.585 168.642 308.999 169.059 308.926 169.096C308.904 169.074 308.948 169.081 308.845 169.022C308.801 168.986 308.757 168.957 308.721 168.561C308.691 168.165 308.728 167.543 308.728 166.811C308.728 165.236 308.867 164.415 308.787 163.632C308.75 163.236 308.589 162.753 308.237 162.431C307.886 162.116 307.505 161.998 307.109 161.896C306.487 161.742 305.645 161.676 304.429 161.662ZM304.414 163.537C305.549 163.551 306.348 163.639 306.641 163.712C306.89 163.778 306.926 163.808 306.919 163.793C306.919 163.808 306.919 163.8 306.919 163.822C306.948 164.137 306.853 165.148 306.853 166.811C306.853 167.462 306.802 168.092 306.853 168.722C306.904 169.352 307.131 170.121 307.798 170.575H307.805C307.725 170.524 308.647 171.212 309.526 170.897C310.405 170.575 311.101 169.769 312.09 168.019C312.954 166.466 313.591 165.595 313.591 165.595L313.65 165.507L313.694 165.419C313.694 165.419 313.679 165.412 313.694 165.404L317.502 165.375C317.502 165.375 317.766 165.375 318.022 165.419C318.03 165.419 318.037 165.419 318.044 165.419C318.008 165.434 318.037 165.529 317.781 166.049C317.451 166.715 316.858 167.667 316.016 168.847C315.32 169.806 314.8 170.429 314.412 170.883C314.023 171.33 313.73 171.542 313.54 172.128C313.445 172.414 313.467 172.838 313.606 173.124C313.738 173.402 313.899 173.556 314.06 173.71C314.382 174.018 314.763 174.318 315.32 174.867C316.411 175.922 317.026 176.698 317.371 177.211C317.546 177.475 317.649 177.658 317.715 177.79C317.781 177.921 317.737 177.87 317.883 178.119C318.008 178.346 317.986 178.375 317.986 178.361C317.861 178.434 317.546 178.5 317.539 178.5L314.353 178.559L314.265 178.581C314.265 178.581 314.272 178.588 314.075 178.559C313.87 178.522 313.547 178.434 313.137 178.141C312.632 177.782 311.995 176.947 311.365 176.186C311.057 175.812 310.742 175.446 310.347 175.153C309.951 174.86 309.329 174.589 308.691 174.801C308.142 174.977 307.783 175.38 307.556 175.753C307.329 176.134 307.197 176.53 307.095 176.889C306.904 177.614 306.875 178.266 306.875 178.266V178.324C306.875 178.324 306.875 178.368 306.86 178.434C306.824 178.449 306.772 178.485 306.743 178.5H304.502C304.502 178.5 301.404 178.661 298.364 175.365C295.112 171.813 292.219 165.873 291.978 165.375H295.75C295.786 165.39 295.918 165.441 295.903 165.434C295.815 165.36 295.947 165.521 295.947 165.521L296.006 165.661L296.108 165.778C296.108 165.778 296.687 166.481 297.515 167.975C298.401 169.579 299.148 170.414 299.983 170.817C300.818 171.22 301.697 170.934 302.07 170.722C302.766 170.319 302.847 169.755 302.964 169.235C303.081 168.715 303.118 168.158 303.14 167.616C303.184 166.576 303.125 165.69 303.125 165.624C303.118 165.602 303.118 165.346 303.044 165.067C302.964 164.782 302.817 164.408 302.539 164.013C302.422 163.852 302.312 163.932 302.187 163.815C302.708 163.668 303.264 163.522 304.414 163.537Z" fill="#212121"/>
</g>
<defs>
<clipPath id="clip0_1_108">
<rect width="30" height="30" fill="white" transform="translate(0 76)"/>
</clipPath>
<clipPath id="clip1_1_108">
<rect width="30" height="30" fill="white" transform="translate(290 156)"/>
</clipPath>
</defs>
</svg>
