<svg width="1240" height="54" viewBox="0 0 1240 54" fill="none" xmlns="http://www.w3.org/2000/svg">
<path d="M25.625 3.125H4.375L6.25 24.375L15 26.875L23.75 24.375L25.625 3.125Z" fill="#E65100"/>
<path d="M15 5V24.9375L22 22.9375L23.5625 5H15Z" fill="#FF6D00"/>
<path d="M15 15.625V13.125H20.375L19.9375 20.3125L15 21.9375V19.3125L17.5625 18.4375L17.75 15.625H15ZM20.5625 10.625L20.75 8.125H15V10.625H20.5625Z" fill="white"/>
<path d="M15 19.3125V21.9375L10.0625 20.3125L9.8125 16.875H12.3125L12.4375 18.4375L15 19.3125ZM11.9375 10.625H15V8.125H9.3125L9.75 15.625H15V13.125H12.125L11.9375 10.625Z" fill="#EEEEEE"/>
<path d="M41.3301 7.80469V12.3457C41.3301 12.6061 41.3236 12.8698 41.3105 13.1367C41.2975 13.3971 41.2747 13.638 41.2422 13.8594H41.3496C41.571 13.4818 41.8509 13.166 42.1895 12.9121C42.5345 12.6517 42.9251 12.4564 43.3613 12.3262C43.7975 12.1895 44.2598 12.1211 44.748 12.1211C45.6074 12.1211 46.3236 12.2578 46.8965 12.5312C47.4759 12.8047 47.9089 13.2279 48.1953 13.8008C48.4883 14.3737 48.6348 15.1159 48.6348 16.0273V23H47.0332V16.1348C47.0332 15.2428 46.8281 14.5755 46.418 14.1328C46.0143 13.6901 45.3926 13.4688 44.5527 13.4688C43.7585 13.4688 43.1237 13.6217 42.6484 13.9277C42.1797 14.2272 41.8411 14.6699 41.6328 15.2559C41.431 15.8418 41.3301 16.5579 41.3301 17.4043V23H39.709V7.80469H41.3301ZM55.4316 21.8672C55.6986 21.8672 55.972 21.8444 56.252 21.7988C56.5319 21.7533 56.7598 21.6979 56.9355 21.6328V22.8926C56.7467 22.9772 56.4831 23.0488 56.1445 23.1074C55.8125 23.166 55.487 23.1953 55.168 23.1953C54.6016 23.1953 54.0872 23.0977 53.625 22.9023C53.1628 22.7005 52.7917 22.362 52.5117 21.8867C52.2383 21.4115 52.1016 20.7539 52.1016 19.9141V13.5664H50.5781V12.7754L52.1113 12.1406L52.7559 9.81641H53.7324V12.2969H56.8672V13.5664H53.7324V19.8652C53.7324 20.5358 53.8854 21.0371 54.1914 21.3691C54.5039 21.7012 54.9173 21.8672 55.4316 21.8672ZM70.7246 12.1016C71.903 12.1016 72.7917 12.4108 73.3906 13.0293C73.9896 13.6413 74.2891 14.6276 74.2891 15.9883V23H72.6875V16.0664C72.6875 15.2005 72.4987 14.5527 72.1211 14.123C71.75 13.6868 71.1966 13.4688 70.4609 13.4688C69.4258 13.4688 68.6738 13.7682 68.2051 14.3672C67.7363 14.9661 67.502 15.8483 67.502 17.0137V23H65.8906V16.0664C65.8906 15.487 65.806 15.0052 65.6367 14.6211C65.474 14.237 65.2266 13.9505 64.8945 13.7617C64.569 13.5664 64.1556 13.4688 63.6543 13.4688C62.9447 13.4688 62.375 13.6152 61.9453 13.9082C61.5156 14.2012 61.2031 14.6374 61.0078 15.2168C60.819 15.7897 60.7246 16.4961 60.7246 17.3359V23H59.1035V12.2969H60.4121L60.6562 13.8105H60.7441C60.959 13.4395 61.2292 13.127 61.5547 12.873C61.8802 12.6191 62.2448 12.4271 62.6484 12.2969C63.0521 12.1667 63.4818 12.1016 63.9375 12.1016C64.7513 12.1016 65.4316 12.2546 65.9785 12.5605C66.5319 12.86 66.9323 13.319 67.1797 13.9375H67.2676C67.6191 13.319 68.1009 12.86 68.7129 12.5605C69.3249 12.2546 69.9954 12.1016 70.7246 12.1016ZM79.25 23H77.6191V7.80469H79.25V23Z" fill="#212121"/>
<rect x="0.5" y="36.5" width="1239" height="17" rx="8.5" stroke="#212121"/>
<rect x="2" y="38" width="500" height="14" rx="7" fill="#09A494"/>
</svg>
