<svg width="30" height="22" viewBox="0 0 30 22" fill="none" xmlns="http://www.w3.org/2000/svg">
<path d="M27.3633 0H2.63672C1.18582 0 0 1.18061 0 2.63672V18.457C0 19.9137 1.18658 21.0938 2.63672 21.0938H27.3633C28.8142 21.0938 30 19.9131 30 18.457V2.63672C30 1.18025 28.8136 0 27.3633 0ZM26.9584 1.75781L15.6811 13.0719C15.3375 13.4166 14.6627 13.4168 14.3189 13.0719L3.0416 1.75781H26.9584ZM1.75781 18.1339V2.95986L9.32022 10.5469L1.75781 18.1339ZM3.0416 19.3359L10.5612 11.7919L13.074 14.3129C14.1037 15.3459 15.8967 15.3455 16.9261 14.3129L19.4389 11.7919L26.9584 19.3359H3.0416ZM28.2422 18.1339L20.6798 10.5469L28.2422 2.95986V18.1339Z" fill="#212121"/>
</svg>
