<svg width="44" height="57" viewBox="0 0 44 57" fill="none" xmlns="http://www.w3.org/2000/svg">
<path d="M26.8068 29.7974C24.4188 29.7974 22.4759 27.8545 22.4759 25.4665V20.4556C22.4759 18.0675 24.4188 16.1245 26.8068 16.1245C29.1949 16.1245 31.1377 18.0674 31.1377 20.4556V25.4665C31.1377 27.8545 29.1949 29.7974 26.8068 29.7974ZM26.8068 18.5198C25.7394 18.5198 24.8711 19.3881 24.8711 20.4556V25.4665C24.8711 26.5338 25.7395 27.4022 26.8068 27.4022C27.8741 27.4022 28.7425 26.5338 28.7425 25.4665V20.4556C28.7425 19.3881 27.8743 18.5198 26.8068 18.5198ZM4.3309 29.7974C1.94287 29.7974 0 27.8545 0 25.4665V20.4556C0 18.0675 1.94287 16.1245 4.3309 16.1245C6.71892 16.1245 8.6618 18.0674 8.6618 20.4556V25.4665C8.6618 27.8545 6.71904 29.7974 4.3309 29.7974ZM4.3309 18.5198C3.26347 18.5198 2.39521 19.3881 2.39521 20.4556V25.4665C2.39521 26.5338 3.26347 27.4022 4.3309 27.4022C5.39832 27.4022 6.26659 26.5338 6.26659 25.4665V20.4556C6.26659 19.3881 5.39832 18.5198 4.3309 18.5198ZM26.8068 47.9611C24.4188 47.9611 22.4759 49.9039 22.4759 52.292V56.3832C23.2729 56.4421 24.072 56.4688 24.8711 56.4634V52.292C24.8711 51.2247 25.7395 50.3563 26.8068 50.3563C27.8741 50.3563 28.7425 51.2247 28.7425 52.292V56.1837C29.5466 56.0721 30.3457 55.9271 31.1377 55.749V52.292C31.1377 49.9039 29.1949 47.9611 26.8068 47.9611ZM15.2702 45.5659C12.8822 45.5659 10.9393 43.623 10.9393 41.235V36.2241C10.9393 33.836 12.8822 31.8931 15.2702 31.8931C17.6582 31.8931 19.6011 33.8359 19.6011 36.2241V41.235C19.6011 43.623 17.6582 45.5659 15.2702 45.5659ZM15.2702 34.2883C14.2028 34.2883 13.3345 35.1566 13.3345 36.2241V41.235C13.3345 42.3023 14.2028 43.1707 15.2702 43.1707C16.3376 43.1707 17.2059 42.3023 17.2059 41.235V36.2241C17.2059 35.1566 16.3375 34.2883 15.2702 34.2883ZM26.8068 13.6728C24.4188 13.6728 22.4759 11.7299 22.4759 9.3418V4.3309C22.4759 1.94287 24.4188 0 26.8068 0C29.1949 0 31.1377 1.94287 31.1377 4.3309V9.3418C31.1377 11.7299 29.1949 13.6728 26.8068 13.6728ZM26.8068 2.39521C25.7394 2.39521 24.8711 3.26359 24.8711 4.3309V9.3418C24.8711 10.4092 25.7395 11.2776 26.8068 11.2776C27.8741 11.2776 28.7425 10.4092 28.7425 9.3418V4.3309C28.7425 3.26359 27.8743 2.39521 26.8068 2.39521ZM34.452 4.3309V9.3418C34.452 11.7298 36.3949 13.6728 38.7829 13.6728C41.1709 13.6728 43.1138 11.7299 43.1138 9.3418V4.3309L43.1135 4.30108C41.2075 2.75815 39.1156 1.46021 36.8867 0.437605C35.4464 1.14192 34.452 2.6224 34.452 4.3309ZM40.7186 4.3309V9.3418C40.7186 10.4092 39.8503 11.2776 38.7829 11.2776C37.7155 11.2776 36.8472 10.4092 36.8472 9.3418V4.3309C36.8472 3.26359 37.7155 2.39521 38.7829 2.39521C39.8503 2.39521 40.7186 3.26359 40.7186 4.3309Z" fill="#5AFFB7"/>
</svg>
